M48
; DRILL file KiCad 10.0.3 date 2026-07-01T15:39:14
; FORMAT={-:-/ absolute / metric / decimal}
; #@! TF.CreationDate,2026-07-01T15:39:14+02:00
; #@! TF.GenerationSoftware,Kicad,Pcbnew,10.0.3
; #@! TF.FileFunction,Plated,1,2,PTH
FMAT,2
METRIC
; #@! TA.AperFunction,Plated,PTH,ViaDrill
T1C0.300
; #@! TA.AperFunction,Plated,PTH,ComponentDrill
T2C0.800
; #@! TA.AperFunction,Plated,PTH,ComponentDrill
T3C1.000
; #@! TA.AperFunction,Plated,PTH,ComponentDrill
T4C1.100
%
G90
G05
T1
X19.3Y-25.994
X19.3Y-40.994
X19.3Y-55.994
X20.975Y-33.275
X25.55Y-48.1
X26.3Y-25.994
X26.3Y-40.994
X26.3Y-55.994
X34.275Y-50.9
X34.5Y-40.75
X41.175Y-51.4
X44.25Y-36.15
X47.45Y-45.7
X53.925Y-55.225
X54.025Y-43.95
X54.6Y-63.975
X57.225Y-50.325
X57.5Y-46.225
X68.3Y-26.519
X68.3Y-41.519
X68.3Y-56.519
X75.3Y-26.519
X75.3Y-41.519
X75.3Y-56.519
T2
X34.58Y-59.4
X37.1Y-47.84
X37.1Y-55.46
X37.12Y-59.4
X39.66Y-59.4
X42.37Y-59.4
X44.85Y-48.355
X44.85Y-55.975
X44.91Y-59.4
X47.45Y-59.4
X50.06Y-59.4
X50.25Y-47.6
X50.25Y-55.22
X52.6Y-59.4
X55.14Y-59.4
T3
X38.79Y-16.81
X38.79Y-19.35
X38.79Y-21.89
X38.79Y-24.43
X38.79Y-26.97
X38.79Y-29.51
X38.79Y-32.05
X38.79Y-34.59
X38.79Y-37.13
X54.03Y-16.81
X54.03Y-19.35
X54.03Y-21.89
X54.03Y-24.43
X54.03Y-26.97
X54.03Y-29.51
X54.03Y-32.05
X54.03Y-34.59
X54.03Y-37.13
X59.66Y-18.175
X62.2Y-18.175
T4
X60.225Y-51.24
X60.225Y-61.4
X60.275Y-23.165
X60.275Y-33.325
X60.35Y-37.265
X60.35Y-47.425
M30
