<?xml version="1.0" standalone="no"?>
 <!DOCTYPE svg PUBLIC "-//W3C//DTD SVG 1.1//EN" 
 "http://www.w3.org/Graphics/SVG/1.1/DTD/svg11.dtd"> 
<svg
  xmlns:svg="http://www.w3.org/2000/svg"
  xmlns="http://www.w3.org/2000/svg"
  xmlns:xlink="http://www.w3.org/1999/xlink"
  xmlns:inkscape="http://www.inkscape.org/namespaces/inkscape"
  version="1.1"
  width="297.0022mm" height="210.0072mm" viewBox="0.0000 0.0000 297.0022 210.0072">
<title>SVG Image created as pcb-NPTH-drl_map.svg date 2026-06-29T19:30:03 </title>
  <desc>Image generated by PCBNEW </desc>
<g style="fill:#000000; fill-opacity:1.0000;stroke:#000000; stroke-opacity:1.0000;
stroke-linecap:round; stroke-linejoin:round;"
 transform="translate(0 0) scale(1 1)">
<path style="fill:none; 
stroke:#000000; stroke-width:0.1159; stroke-opacity:1; 
stroke-linecap:round; stroke-linejoin:round;fill:none"
d="M 78.9680,5.0579
218.0342,5.0579
218.0342,120.9464
78.9680,120.9464
Z" /> 
</g>
<g style="fill:none; 
stroke:#000000; stroke-width:0.3477; stroke-opacity:1; 
stroke-linecap:round; stroke-linejoin:round;">
<path d="M81.8073 23.8319
L85.2840 27.3085
" />
<path d="M85.2840 23.8319
L81.8073 27.3085
" />
<path d="M81.8073 58.5984
L85.2840 62.0751
" />
<path d="M85.2840 58.5984
L81.8073 62.0751
" />
<path d="M81.8073 93.3649
L85.2840 96.8416
" />
<path d="M85.2840 93.3649
L81.8073 96.8416
" />
<path d="M98.0317 23.8319
L101.5083 27.3085
" />
<path d="M101.5083 23.8319
L98.0317 27.3085
" />
<path d="M98.0317 58.5984
L101.5083 62.0751
" />
<path d="M101.5083 58.5984
L98.0317 62.0751
" />
<path d="M98.0317 93.3649
L101.5083 96.8416
" />
<path d="M101.5083 93.3649
L98.0317 96.8416
" />
<path d="M195.3780 25.0487
L198.8546 28.5254
" />
<path d="M198.8546 25.0487
L195.3780 28.5254
" />
<path d="M195.3780 59.8152
L198.8546 63.2919
" />
<path d="M198.8546 59.8152
L195.3780 63.2919
" />
<path d="M195.3780 94.5818
L198.8546 98.0584
" />
<path d="M198.8546 94.5818
L195.3780 98.0584
" />
<path d="M211.6024 25.0487
L215.0790 28.5254
" />
<path d="M215.0790 25.0487
L211.6024 28.5254
" />
<path d="M211.6024 59.8152
L215.0790 63.2919
" />
<path d="M215.0790 59.8152
L211.6024 63.2919
" />
<path d="M211.6024 94.5818
L215.0790 98.0584
" />
<path d="M215.0790 94.5818
L211.6024 98.0584
" />
</g>
<g style="fill:none; 
stroke:#000000; stroke-width:0.2000; stroke-opacity:1; 
stroke-linecap:round; stroke-linejoin:round;">
<text x="80.9101" y="124.2043"
textLength="14.8667" font-size="2.6667" lengthAdjust="spacingAndGlyphs"
text-anchor="start" opacity="0" stroke-opacity="0">Drill Map:</text>
<g class="stroked-text"><desc>Drill Map:</desc>
<path d="M81.5179 124.1192
L81.5179 122.1192
" />
<path d="M81.5179 122.1192
L81.9941 122.1192
" />
<path d="M81.9941 122.1192
L82.2798 122.2144
" />
<path d="M82.2798 122.2144
L82.4702 122.4049
" />
<path d="M82.4702 122.4049
L82.5655 122.5953
" />
<path d="M82.5655 122.5953
L82.6607 122.9763
" />
<path d="M82.6607 122.9763
L82.6607 123.2620
" />
<path d="M82.6607 123.2620
L82.5655 123.6430
" />
<path d="M82.5655 123.6430
L82.4702 123.8334
" />
<path d="M82.4702 123.8334
L82.2798 124.0239
" />
<path d="M82.2798 124.0239
L81.9941 124.1192
" />
<path d="M81.9941 124.1192
L81.5179 124.1192
" />
<path d="M83.5179 124.1192
L83.5179 122.7858
" />
<path d="M83.5179 123.1668
L83.6131 122.9763
" />
<path d="M83.6131 122.9763
L83.7083 122.8811
" />
<path d="M83.7083 122.8811
L83.8988 122.7858
" />
<path d="M83.8988 122.7858
L84.0893 122.7858
" />
<path d="M84.7560 124.1192
L84.7560 122.7858
" />
<path d="M84.7560 122.1192
L84.6607 122.2144
" />
<path d="M84.6607 122.2144
L84.7560 122.3096
" />
<path d="M84.7560 122.3096
L84.8512 122.2144
" />
<path d="M84.8512 122.2144
L84.7560 122.1192
" />
<path d="M84.7560 122.1192
L84.7560 122.3096
" />
<path d="M85.9941 124.1192
L85.8036 124.0239
" />
<path d="M85.8036 124.0239
L85.7083 123.8334
" />
<path d="M85.7083 123.8334
L85.7083 122.1192
" />
<path d="M87.0417 124.1192
L86.8512 124.0239
" />
<path d="M86.8512 124.0239
L86.7560 123.8334
" />
<path d="M86.7560 123.8334
L86.7560 122.1192
" />
<path d="M89.3274 124.1192
L89.3274 122.1192
" />
<path d="M89.3274 122.1192
L89.9941 123.5477
" />
<path d="M89.9941 123.5477
L90.6607 122.1192
" />
<path d="M90.6607 122.1192
L90.6607 124.1192
" />
<path d="M92.4702 124.1192
L92.4702 123.0715
" />
<path d="M92.4702 123.0715
L92.3750 122.8811
" />
<path d="M92.3750 122.8811
L92.1845 122.7858
" />
<path d="M92.1845 122.7858
L91.8036 122.7858
" />
<path d="M91.8036 122.7858
L91.6131 122.8811
" />
<path d="M92.4702 124.0239
L92.2798 124.1192
" />
<path d="M92.2798 124.1192
L91.8036 124.1192
" />
<path d="M91.8036 124.1192
L91.6131 124.0239
" />
<path d="M91.6131 124.0239
L91.5179 123.8334
" />
<path d="M91.5179 123.8334
L91.5179 123.6430
" />
<path d="M91.5179 123.6430
L91.6131 123.4525
" />
<path d="M91.6131 123.4525
L91.8036 123.3573
" />
<path d="M91.8036 123.3573
L92.2798 123.3573
" />
<path d="M92.2798 123.3573
L92.4702 123.2620
" />
<path d="M93.4226 122.7858
L93.4226 124.7858
" />
<path d="M93.4226 122.8811
L93.6131 122.7858
" />
<path d="M93.6131 122.7858
L93.9941 122.7858
" />
<path d="M93.9941 122.7858
L94.1845 122.8811
" />
<path d="M94.1845 122.8811
L94.2798 122.9763
" />
<path d="M94.2798 122.9763
L94.3750 123.1668
" />
<path d="M94.3750 123.1668
L94.3750 123.7382
" />
<path d="M94.3750 123.7382
L94.2798 123.9287
" />
<path d="M94.2798 123.9287
L94.1845 124.0239
" />
<path d="M94.1845 124.0239
L93.9941 124.1192
" />
<path d="M93.9941 124.1192
L93.6131 124.1192
" />
<path d="M93.6131 124.1192
L93.4226 124.0239
" />
<path d="M95.2322 123.9287
L95.3274 124.0239
" />
<path d="M95.3274 124.0239
L95.2322 124.1192
" />
<path d="M95.2322 124.1192
L95.1369 124.0239
" />
<path d="M95.1369 124.0239
L95.2322 123.9287
" />
<path d="M95.2322 123.9287
L95.2322 124.1192
" />
<path d="M95.2322 122.8811
L95.3274 122.9763
" />
<path d="M95.3274 122.9763
L95.2322 123.0715
" />
<path d="M95.2322 123.0715
L95.1369 122.9763
" />
<path d="M95.1369 122.9763
L95.2322 122.8811
" />
<path d="M95.2322 122.8811
L95.2322 123.0715
" />
</g></g>
<g style="fill:none; 
stroke:#000000; stroke-width:0.2318; stroke-opacity:1; 
stroke-linecap:round; stroke-linejoin:round;">
<path d="M76.9101 126.4043
L78.9101 128.4043
" />
<path d="M78.9101 126.4043
L76.9101 128.4043
" />
</g>
<g style="fill:none; 
stroke:#000000; stroke-width:0.2000; stroke-opacity:1; 
stroke-linecap:round; stroke-linejoin:round;">
<text x="80.9101" y="128.4043"
textLength="68.5810" font-size="2.6667" lengthAdjust="spacingAndGlyphs"
text-anchor="start" opacity="0" stroke-opacity="0">1.500mm / 0.0591" (12 holes) (not plated)</text>
<g class="stroked-text"><desc>1.500mm / 0.0591" (12 holes) (not plated)</desc>
<path d="M82.5655 128.3192
L81.4226 128.3192
" />
<path d="M81.9941 128.3192
L81.9941 126.3192
" />
<path d="M81.9941 126.3192
L81.8036 126.6049
" />
<path d="M81.8036 126.6049
L81.6131 126.7953
" />
<path d="M81.6131 126.7953
L81.4226 126.8906
" />
<path d="M83.4226 128.1287
L83.5179 128.2239
" />
<path d="M83.5179 128.2239
L83.4226 128.3192
" />
<path d="M83.4226 128.3192
L83.3274 128.2239
" />
<path d="M83.3274 128.2239
L83.4226 128.1287
" />
<path d="M83.4226 128.1287
L83.4226 128.3192
" />
<path d="M85.3274 126.3192
L84.3750 126.3192
" />
<path d="M84.3750 126.3192
L84.2798 127.2715
" />
<path d="M84.2798 127.2715
L84.3750 127.1763
" />
<path d="M84.3750 127.1763
L84.5655 127.0811
" />
<path d="M84.5655 127.0811
L85.0417 127.0811
" />
<path d="M85.0417 127.0811
L85.2322 127.1763
" />
<path d="M85.2322 127.1763
L85.3274 127.2715
" />
<path d="M85.3274 127.2715
L85.4226 127.4620
" />
<path d="M85.4226 127.4620
L85.4226 127.9382
" />
<path d="M85.4226 127.9382
L85.3274 128.1287
" />
<path d="M85.3274 128.1287
L85.2322 128.2239
" />
<path d="M85.2322 128.2239
L85.0417 128.3192
" />
<path d="M85.0417 128.3192
L84.5655 128.3192
" />
<path d="M84.5655 128.3192
L84.3750 128.2239
" />
<path d="M84.3750 128.2239
L84.2798 128.1287
" />
<path d="M86.6607 126.3192
L86.8512 126.3192
" />
<path d="M86.8512 126.3192
L87.0417 126.4144
" />
<path d="M87.0417 126.4144
L87.1369 126.5096
" />
<path d="M87.1369 126.5096
L87.2322 126.7001
" />
<path d="M87.2322 126.7001
L87.3274 127.0811
" />
<path d="M87.3274 127.0811
L87.3274 127.5573
" />
<path d="M87.3274 127.5573
L87.2322 127.9382
" />
<path d="M87.2322 127.9382
L87.1369 128.1287
" />
<path d="M87.1369 128.1287
L87.0417 128.2239
" />
<path d="M87.0417 128.2239
L86.8512 128.3192
" />
<path d="M86.8512 128.3192
L86.6607 128.3192
" />
<path d="M86.6607 128.3192
L86.4702 128.2239
" />
<path d="M86.4702 128.2239
L86.3750 128.1287
" />
<path d="M86.3750 128.1287
L86.2798 127.9382
" />
<path d="M86.2798 127.9382
L86.1845 127.5573
" />
<path d="M86.1845 127.5573
L86.1845 127.0811
" />
<path d="M86.1845 127.0811
L86.2798 126.7001
" />
<path d="M86.2798 126.7001
L86.3750 126.5096
" />
<path d="M86.3750 126.5096
L86.4702 126.4144
" />
<path d="M86.4702 126.4144
L86.6607 126.3192
" />
<path d="M88.5655 126.3192
L88.7560 126.3192
" />
<path d="M88.7560 126.3192
L88.9464 126.4144
" />
<path d="M88.9464 126.4144
L89.0417 126.5096
" />
<path d="M89.0417 126.5096
L89.1369 126.7001
" />
<path d="M89.1369 126.7001
L89.2322 127.0811
" />
<path d="M89.2322 127.0811
L89.2322 127.5573
" />
<path d="M89.2322 127.5573
L89.1369 127.9382
" />
<path d="M89.1369 127.9382
L89.0417 128.1287
" />
<path d="M89.0417 128.1287
L88.9464 128.2239
" />
<path d="M88.9464 128.2239
L88.7560 128.3192
" />
<path d="M88.7560 128.3192
L88.5655 128.3192
" />
<path d="M88.5655 128.3192
L88.3750 128.2239
" />
<path d="M88.3750 128.2239
L88.2798 128.1287
" />
<path d="M88.2798 128.1287
L88.1845 127.9382
" />
<path d="M88.1845 127.9382
L88.0893 127.5573
" />
<path d="M88.0893 127.5573
L88.0893 127.0811
" />
<path d="M88.0893 127.0811
L88.1845 126.7001
" />
<path d="M88.1845 126.7001
L88.2798 126.5096
" />
<path d="M88.2798 126.5096
L88.3750 126.4144
" />
<path d="M88.3750 126.4144
L88.5655 126.3192
" />
<path d="M90.0893 128.3192
L90.0893 126.9858
" />
<path d="M90.0893 127.1763
L90.1845 127.0811
" />
<path d="M90.1845 127.0811
L90.3750 126.9858
" />
<path d="M90.3750 126.9858
L90.6607 126.9858
" />
<path d="M90.6607 126.9858
L90.8512 127.0811
" />
<path d="M90.8512 127.0811
L90.9464 127.2715
" />
<path d="M90.9464 127.2715
L90.9464 128.3192
" />
<path d="M90.9464 127.2715
L91.0417 127.0811
" />
<path d="M91.0417 127.0811
L91.2322 126.9858
" />
<path d="M91.2322 126.9858
L91.5179 126.9858
" />
<path d="M91.5179 126.9858
L91.7083 127.0811
" />
<path d="M91.7083 127.0811
L91.8036 127.2715
" />
<path d="M91.8036 127.2715
L91.8036 128.3192
" />
<path d="M92.7560 128.3192
L92.7560 126.9858
" />
<path d="M92.7560 127.1763
L92.8512 127.0811
" />
<path d="M92.8512 127.0811
L93.0417 126.9858
" />
<path d="M93.0417 126.9858
L93.3274 126.9858
" />
<path d="M93.3274 126.9858
L93.5179 127.0811
" />
<path d="M93.5179 127.0811
L93.6131 127.2715
" />
<path d="M93.6131 127.2715
L93.6131 128.3192
" />
<path d="M93.6131 127.2715
L93.7083 127.0811
" />
<path d="M93.7083 127.0811
L93.8988 126.9858
" />
<path d="M93.8988 126.9858
L94.1845 126.9858
" />
<path d="M94.1845 126.9858
L94.3750 127.0811
" />
<path d="M94.3750 127.0811
L94.4702 127.2715
" />
<path d="M94.4702 127.2715
L94.4702 128.3192
" />
<path d="M98.3750 126.2239
L96.6607 128.7953
" />
<path d="M100.9464 126.3192
L101.1369 126.3192
" />
<path d="M101.1369 126.3192
L101.3274 126.4144
" />
<path d="M101.3274 126.4144
L101.4226 126.5096
" />
<path d="M101.4226 126.5096
L101.5179 126.7001
" />
<path d="M101.5179 126.7001
L101.6131 127.0811
" />
<path d="M101.6131 127.0811
L101.6131 127.5573
" />
<path d="M101.6131 127.5573
L101.5179 127.9382
" />
<path d="M101.5179 127.9382
L101.4226 128.1287
" />
<path d="M101.4226 128.1287
L101.3274 128.2239
" />
<path d="M101.3274 128.2239
L101.1369 128.3192
" />
<path d="M101.1369 128.3192
L100.9464 128.3192
" />
<path d="M100.9464 128.3192
L100.7560 128.2239
" />
<path d="M100.7560 128.2239
L100.6607 128.1287
" />
<path d="M100.6607 128.1287
L100.5655 127.9382
" />
<path d="M100.5655 127.9382
L100.4702 127.5573
" />
<path d="M100.4702 127.5573
L100.4702 127.0811
" />
<path d="M100.4702 127.0811
L100.5655 126.7001
" />
<path d="M100.5655 126.7001
L100.6607 126.5096
" />
<path d="M100.6607 126.5096
L100.7560 126.4144
" />
<path d="M100.7560 126.4144
L100.9464 126.3192
" />
<path d="M102.4703 128.1287
L102.5655 128.2239
" />
<path d="M102.5655 128.2239
L102.4703 128.3192
" />
<path d="M102.4703 128.3192
L102.3750 128.2239
" />
<path d="M102.3750 128.2239
L102.4703 128.1287
" />
<path d="M102.4703 128.1287
L102.4703 128.3192
" />
<path d="M103.8036 126.3192
L103.9941 126.3192
" />
<path d="M103.9941 126.3192
L104.1845 126.4144
" />
<path d="M104.1845 126.4144
L104.2798 126.5096
" />
<path d="M104.2798 126.5096
L104.3750 126.7001
" />
<path d="M104.3750 126.7001
L104.4703 127.0811
" />
<path d="M104.4703 127.0811
L104.4703 127.5573
" />
<path d="M104.4703 127.5573
L104.3750 127.9382
" />
<path d="M104.3750 127.9382
L104.2798 128.1287
" />
<path d="M104.2798 128.1287
L104.1845 128.2239
" />
<path d="M104.1845 128.2239
L103.9941 128.3192
" />
<path d="M103.9941 128.3192
L103.8036 128.3192
" />
<path d="M103.8036 128.3192
L103.6131 128.2239
" />
<path d="M103.6131 128.2239
L103.5179 128.1287
" />
<path d="M103.5179 128.1287
L103.4226 127.9382
" />
<path d="M103.4226 127.9382
L103.3274 127.5573
" />
<path d="M103.3274 127.5573
L103.3274 127.0811
" />
<path d="M103.3274 127.0811
L103.4226 126.7001
" />
<path d="M103.4226 126.7001
L103.5179 126.5096
" />
<path d="M103.5179 126.5096
L103.6131 126.4144
" />
<path d="M103.6131 126.4144
L103.8036 126.3192
" />
<path d="M106.2798 126.3192
L105.3274 126.3192
" />
<path d="M105.3274 126.3192
L105.2322 127.2715
" />
<path d="M105.2322 127.2715
L105.3274 127.1763
" />
<path d="M105.3274 127.1763
L105.5179 127.0811
" />
<path d="M105.5179 127.0811
L105.9941 127.0811
" />
<path d="M105.9941 127.0811
L106.1845 127.1763
" />
<path d="M106.1845 127.1763
L106.2798 127.2715
" />
<path d="M106.2798 127.2715
L106.3750 127.4620
" />
<path d="M106.3750 127.4620
L106.3750 127.9382
" />
<path d="M106.3750 127.9382
L106.2798 128.1287
" />
<path d="M106.2798 128.1287
L106.1845 128.2239
" />
<path d="M106.1845 128.2239
L105.9941 128.3192
" />
<path d="M105.9941 128.3192
L105.5179 128.3192
" />
<path d="M105.5179 128.3192
L105.3274 128.2239
" />
<path d="M105.3274 128.2239
L105.2322 128.1287
" />
<path d="M107.3274 128.3192
L107.7083 128.3192
" />
<path d="M107.7083 128.3192
L107.8988 128.2239
" />
<path d="M107.8988 128.2239
L107.9941 128.1287
" />
<path d="M107.9941 128.1287
L108.1845 127.8430
" />
<path d="M108.1845 127.8430
L108.2798 127.4620
" />
<path d="M108.2798 127.4620
L108.2798 126.7001
" />
<path d="M108.2798 126.7001
L108.1845 126.5096
" />
<path d="M108.1845 126.5096
L108.0893 126.4144
" />
<path d="M108.0893 126.4144
L107.8988 126.3192
" />
<path d="M107.8988 126.3192
L107.5179 126.3192
" />
<path d="M107.5179 126.3192
L107.3274 126.4144
" />
<path d="M107.3274 126.4144
L107.2322 126.5096
" />
<path d="M107.2322 126.5096
L107.1369 126.7001
" />
<path d="M107.1369 126.7001
L107.1369 127.1763
" />
<path d="M107.1369 127.1763
L107.2322 127.3668
" />
<path d="M107.2322 127.3668
L107.3274 127.4620
" />
<path d="M107.3274 127.4620
L107.5179 127.5573
" />
<path d="M107.5179 127.5573
L107.8988 127.5573
" />
<path d="M107.8988 127.5573
L108.0893 127.4620
" />
<path d="M108.0893 127.4620
L108.1845 127.3668
" />
<path d="M108.1845 127.3668
L108.2798 127.1763
" />
<path d="M110.1845 128.3192
L109.0417 128.3192
" />
<path d="M109.6131 128.3192
L109.6131 126.3192
" />
<path d="M109.6131 126.3192
L109.4226 126.6049
" />
<path d="M109.4226 126.6049
L109.2322 126.7953
" />
<path d="M109.2322 126.7953
L109.0417 126.8906
" />
<path d="M110.9464 126.3192
L110.9464 126.7001
" />
<path d="M111.7084 126.3192
L111.7084 126.7001
" />
<path d="M114.6607 129.0811
L114.5655 128.9858
" />
<path d="M114.5655 128.9858
L114.3750 128.7001
" />
<path d="M114.3750 128.7001
L114.2798 128.5096
" />
<path d="M114.2798 128.5096
L114.1845 128.2239
" />
<path d="M114.1845 128.2239
L114.0893 127.7477
" />
<path d="M114.0893 127.7477
L114.0893 127.3668
" />
<path d="M114.0893 127.3668
L114.1845 126.8906
" />
<path d="M114.1845 126.8906
L114.2798 126.6049
" />
<path d="M114.2798 126.6049
L114.3750 126.4144
" />
<path d="M114.3750 126.4144
L114.5655 126.1287
" />
<path d="M114.5655 126.1287
L114.6607 126.0334
" />
<path d="M116.4703 128.3192
L115.3274 128.3192
" />
<path d="M115.8988 128.3192
L115.8988 126.3192
" />
<path d="M115.8988 126.3192
L115.7084 126.6049
" />
<path d="M115.7084 126.6049
L115.5179 126.7953
" />
<path d="M115.5179 126.7953
L115.3274 126.8906
" />
<path d="M117.2322 126.5096
L117.3274 126.4144
" />
<path d="M117.3274 126.4144
L117.5179 126.3192
" />
<path d="M117.5179 126.3192
L117.9941 126.3192
" />
<path d="M117.9941 126.3192
L118.1845 126.4144
" />
<path d="M118.1845 126.4144
L118.2798 126.5096
" />
<path d="M118.2798 126.5096
L118.3750 126.7001
" />
<path d="M118.3750 126.7001
L118.3750 126.8906
" />
<path d="M118.3750 126.8906
L118.2798 127.1763
" />
<path d="M118.2798 127.1763
L117.1369 128.3192
" />
<path d="M117.1369 128.3192
L118.3750 128.3192
" />
<path d="M120.7560 128.3192
L120.7560 126.3192
" />
<path d="M121.6131 128.3192
L121.6131 127.2715
" />
<path d="M121.6131 127.2715
L121.5179 127.0811
" />
<path d="M121.5179 127.0811
L121.3274 126.9858
" />
<path d="M121.3274 126.9858
L121.0417 126.9858
" />
<path d="M121.0417 126.9858
L120.8512 127.0811
" />
<path d="M120.8512 127.0811
L120.7560 127.1763
" />
<path d="M122.8512 128.3192
L122.6607 128.2239
" />
<path d="M122.6607 128.2239
L122.5655 128.1287
" />
<path d="M122.5655 128.1287
L122.4703 127.9382
" />
<path d="M122.4703 127.9382
L122.4703 127.3668
" />
<path d="M122.4703 127.3668
L122.5655 127.1763
" />
<path d="M122.5655 127.1763
L122.6607 127.0811
" />
<path d="M122.6607 127.0811
L122.8512 126.9858
" />
<path d="M122.8512 126.9858
L123.1369 126.9858
" />
<path d="M123.1369 126.9858
L123.3274 127.0811
" />
<path d="M123.3274 127.0811
L123.4226 127.1763
" />
<path d="M123.4226 127.1763
L123.5179 127.3668
" />
<path d="M123.5179 127.3668
L123.5179 127.9382
" />
<path d="M123.5179 127.9382
L123.4226 128.1287
" />
<path d="M123.4226 128.1287
L123.3274 128.2239
" />
<path d="M123.3274 128.2239
L123.1369 128.3192
" />
<path d="M123.1369 128.3192
L122.8512 128.3192
" />
<path d="M124.6607 128.3192
L124.4703 128.2239
" />
<path d="M124.4703 128.2239
L124.3750 128.0334
" />
<path d="M124.3750 128.0334
L124.3750 126.3192
" />
<path d="M126.1845 128.2239
L125.9941 128.3192
" />
<path d="M125.9941 128.3192
L125.6131 128.3192
" />
<path d="M125.6131 128.3192
L125.4226 128.2239
" />
<path d="M125.4226 128.2239
L125.3274 128.0334
" />
<path d="M125.3274 128.0334
L125.3274 127.2715
" />
<path d="M125.3274 127.2715
L125.4226 127.0811
" />
<path d="M125.4226 127.0811
L125.6131 126.9858
" />
<path d="M125.6131 126.9858
L125.9941 126.9858
" />
<path d="M125.9941 126.9858
L126.1845 127.0811
" />
<path d="M126.1845 127.0811
L126.2798 127.2715
" />
<path d="M126.2798 127.2715
L126.2798 127.4620
" />
<path d="M126.2798 127.4620
L125.3274 127.6525
" />
<path d="M127.0417 128.2239
L127.2322 128.3192
" />
<path d="M127.2322 128.3192
L127.6131 128.3192
" />
<path d="M127.6131 128.3192
L127.8036 128.2239
" />
<path d="M127.8036 128.2239
L127.8988 128.0334
" />
<path d="M127.8988 128.0334
L127.8988 127.9382
" />
<path d="M127.8988 127.9382
L127.8036 127.7477
" />
<path d="M127.8036 127.7477
L127.6131 127.6525
" />
<path d="M127.6131 127.6525
L127.3274 127.6525
" />
<path d="M127.3274 127.6525
L127.1369 127.5573
" />
<path d="M127.1369 127.5573
L127.0417 127.3668
" />
<path d="M127.0417 127.3668
L127.0417 127.2715
" />
<path d="M127.0417 127.2715
L127.1369 127.0811
" />
<path d="M127.1369 127.0811
L127.3274 126.9858
" />
<path d="M127.3274 126.9858
L127.6131 126.9858
" />
<path d="M127.6131 126.9858
L127.8036 127.0811
" />
<path d="M128.5655 129.0811
L128.6607 128.9858
" />
<path d="M128.6607 128.9858
L128.8512 128.7001
" />
<path d="M128.8512 128.7001
L128.9465 128.5096
" />
<path d="M128.9465 128.5096
L129.0417 128.2239
" />
<path d="M129.0417 128.2239
L129.1369 127.7477
" />
<path d="M129.1369 127.7477
L129.1369 127.3668
" />
<path d="M129.1369 127.3668
L129.0417 126.8906
" />
<path d="M129.0417 126.8906
L128.9465 126.6049
" />
<path d="M128.9465 126.6049
L128.8512 126.4144
" />
<path d="M128.8512 126.4144
L128.6607 126.1287
" />
<path d="M128.6607 126.1287
L128.5655 126.0334
" />
<path d="M132.1845 129.0811
L132.0893 128.9858
" />
<path d="M132.0893 128.9858
L131.8988 128.7001
" />
<path d="M131.8988 128.7001
L131.8036 128.5096
" />
<path d="M131.8036 128.5096
L131.7084 128.2239
" />
<path d="M131.7084 128.2239
L131.6131 127.7477
" />
<path d="M131.6131 127.7477
L131.6131 127.3668
" />
<path d="M131.6131 127.3668
L131.7084 126.8906
" />
<path d="M131.7084 126.8906
L131.8036 126.6049
" />
<path d="M131.8036 126.6049
L131.8988 126.4144
" />
<path d="M131.8988 126.4144
L132.0893 126.1287
" />
<path d="M132.0893 126.1287
L132.1845 126.0334
" />
<path d="M132.9465 126.9858
L132.9465 128.3192
" />
<path d="M132.9465 127.1763
L133.0417 127.0811
" />
<path d="M133.0417 127.0811
L133.2322 126.9858
" />
<path d="M133.2322 126.9858
L133.5179 126.9858
" />
<path d="M133.5179 126.9858
L133.7084 127.0811
" />
<path d="M133.7084 127.0811
L133.8036 127.2715
" />
<path d="M133.8036 127.2715
L133.8036 128.3192
" />
<path d="M135.0417 128.3192
L134.8512 128.2239
" />
<path d="M134.8512 128.2239
L134.7560 128.1287
" />
<path d="M134.7560 128.1287
L134.6607 127.9382
" />
<path d="M134.6607 127.9382
L134.6607 127.3668
" />
<path d="M134.6607 127.3668
L134.7560 127.1763
" />
<path d="M134.7560 127.1763
L134.8512 127.0811
" />
<path d="M134.8512 127.0811
L135.0417 126.9858
" />
<path d="M135.0417 126.9858
L135.3274 126.9858
" />
<path d="M135.3274 126.9858
L135.5179 127.0811
" />
<path d="M135.5179 127.0811
L135.6131 127.1763
" />
<path d="M135.6131 127.1763
L135.7084 127.3668
" />
<path d="M135.7084 127.3668
L135.7084 127.9382
" />
<path d="M135.7084 127.9382
L135.6131 128.1287
" />
<path d="M135.6131 128.1287
L135.5179 128.2239
" />
<path d="M135.5179 128.2239
L135.3274 128.3192
" />
<path d="M135.3274 128.3192
L135.0417 128.3192
" />
<path d="M136.2798 126.9858
L137.0417 126.9858
" />
<path d="M136.5655 126.3192
L136.5655 128.0334
" />
<path d="M136.5655 128.0334
L136.6607 128.2239
" />
<path d="M136.6607 128.2239
L136.8512 128.3192
" />
<path d="M136.8512 128.3192
L137.0417 128.3192
" />
<path d="M139.2322 126.9858
L139.2322 128.9858
" />
<path d="M139.2322 127.0811
L139.4226 126.9858
" />
<path d="M139.4226 126.9858
L139.8036 126.9858
" />
<path d="M139.8036 126.9858
L139.9941 127.0811
" />
<path d="M139.9941 127.0811
L140.0893 127.1763
" />
<path d="M140.0893 127.1763
L140.1845 127.3668
" />
<path d="M140.1845 127.3668
L140.1845 127.9382
" />
<path d="M140.1845 127.9382
L140.0893 128.1287
" />
<path d="M140.0893 128.1287
L139.9941 128.2239
" />
<path d="M139.9941 128.2239
L139.8036 128.3192
" />
<path d="M139.8036 128.3192
L139.4226 128.3192
" />
<path d="M139.4226 128.3192
L139.2322 128.2239
" />
<path d="M141.3274 128.3192
L141.1369 128.2239
" />
<path d="M141.1369 128.2239
L141.0417 128.0334
" />
<path d="M141.0417 128.0334
L141.0417 126.3192
" />
<path d="M142.9465 128.3192
L142.9465 127.2715
" />
<path d="M142.9465 127.2715
L142.8512 127.0811
" />
<path d="M142.8512 127.0811
L142.6607 126.9858
" />
<path d="M142.6607 126.9858
L142.2798 126.9858
" />
<path d="M142.2798 126.9858
L142.0893 127.0811
" />
<path d="M142.9465 128.2239
L142.7560 128.3192
" />
<path d="M142.7560 128.3192
L142.2798 128.3192
" />
<path d="M142.2798 128.3192
L142.0893 128.2239
" />
<path d="M142.0893 128.2239
L141.9941 128.0334
" />
<path d="M141.9941 128.0334
L141.9941 127.8430
" />
<path d="M141.9941 127.8430
L142.0893 127.6525
" />
<path d="M142.0893 127.6525
L142.2798 127.5573
" />
<path d="M142.2798 127.5573
L142.7560 127.5573
" />
<path d="M142.7560 127.5573
L142.9465 127.4620
" />
<path d="M143.6131 126.9858
L144.3750 126.9858
" />
<path d="M143.8988 126.3192
L143.8988 128.0334
" />
<path d="M143.8988 128.0334
L143.9941 128.2239
" />
<path d="M143.9941 128.2239
L144.1845 128.3192
" />
<path d="M144.1845 128.3192
L144.3750 128.3192
" />
<path d="M145.8036 128.2239
L145.6131 128.3192
" />
<path d="M145.6131 128.3192
L145.2322 128.3192
" />
<path d="M145.2322 128.3192
L145.0417 128.2239
" />
<path d="M145.0417 128.2239
L144.9465 128.0334
" />
<path d="M144.9465 128.0334
L144.9465 127.2715
" />
<path d="M144.9465 127.2715
L145.0417 127.0811
" />
<path d="M145.0417 127.0811
L145.2322 126.9858
" />
<path d="M145.2322 126.9858
L145.6131 126.9858
" />
<path d="M145.6131 126.9858
L145.8036 127.0811
" />
<path d="M145.8036 127.0811
L145.8988 127.2715
" />
<path d="M145.8988 127.2715
L145.8988 127.4620
" />
<path d="M145.8988 127.4620
L144.9465 127.6525
" />
<path d="M147.6131 128.3192
L147.6131 126.3192
" />
<path d="M147.6131 128.2239
L147.4226 128.3192
" />
<path d="M147.4226 128.3192
L147.0417 128.3192
" />
<path d="M147.0417 128.3192
L146.8512 128.2239
" />
<path d="M146.8512 128.2239
L146.7560 128.1287
" />
<path d="M146.7560 128.1287
L146.6607 127.9382
" />
<path d="M146.6607 127.9382
L146.6607 127.3668
" />
<path d="M146.6607 127.3668
L146.7560 127.1763
" />
<path d="M146.7560 127.1763
L146.8512 127.0811
" />
<path d="M146.8512 127.0811
L147.0417 126.9858
" />
<path d="M147.0417 126.9858
L147.4226 126.9858
" />
<path d="M147.4226 126.9858
L147.6131 127.0811
" />
<path d="M148.3750 129.0811
L148.4703 128.9858
" />
<path d="M148.4703 128.9858
L148.6607 128.7001
" />
<path d="M148.6607 128.7001
L148.7560 128.5096
" />
<path d="M148.7560 128.5096
L148.8512 128.2239
" />
<path d="M148.8512 128.2239
L148.9465 127.7477
" />
<path d="M148.9465 127.7477
L148.9465 127.3668
" />
<path d="M148.9465 127.3668
L148.8512 126.8906
" />
<path d="M148.8512 126.8906
L148.7560 126.6049
" />
<path d="M148.7560 126.6049
L148.6607 126.4144
" />
<path d="M148.6607 126.4144
L148.4703 126.1287
" />
<path d="M148.4703 126.1287
L148.3750 126.0334
" />
</g></g> 
</svg>
