M48
; DRILL file KiCad 10.0.3 date 2026-06-29T19:30:03
; FORMAT={-:-/ absolute / metric / decimal}
; #@! TF.CreationDate,2026-06-29T19:30:03+02:00
; #@! TF.GenerationSoftware,Kicad,Pcbnew,10.0.3
; #@! TF.FileFunction,Plated,1,2,PTH
FMAT,2
METRIC
; #@! TA.AperFunction,Plated,PTH,ViaDrill
T1C0.300
; #@! TA.AperFunction,Plated,PTH,ComponentDrill
T2C0.800
; #@! TA.AperFunction,Plated,PTH,ComponentDrill
T3C1.100
%
G90
G05
T1
X46.75Y-27.25
X49.85Y-26.25
X49.85Y-28.275
X55.875Y-51.25
X55.925Y-28.325
X57.5Y-26.5
X58.075Y-44.125
X66.775Y-20.275
X72.1Y-20.625
X72.875Y-22.925
X75.375Y-53.0
X77.425Y-22.925
X79.775Y-20.925
X81.325Y-31.5
X82.35Y-28.975
X83.4Y-20.925
T2
X57.96Y-16.81
X60.5Y-16.81
X63.04Y-16.81
X66.115Y-32.85
X66.19Y-44.05
X66.24Y-40.65
X66.435Y-16.86
X68.975Y-16.86
X71.515Y-16.86
X73.735Y-32.85
X73.81Y-44.05
X73.86Y-40.65
X74.985Y-16.935
X77.525Y-16.935
X80.065Y-16.935
T3
X86.0Y-43.975
X86.0Y-54.135
X86.05Y-15.9
X86.05Y-26.06
X86.125Y-30.0
X86.125Y-40.16
M30
