<?xml version="1.0" standalone="no"?>
 <!DOCTYPE svg PUBLIC "-//W3C//DTD SVG 1.1//EN" 
 "http://www.w3.org/Graphics/SVG/1.1/DTD/svg11.dtd"> 
<svg
  xmlns:svg="http://www.w3.org/2000/svg"
  xmlns="http://www.w3.org/2000/svg"
  xmlns:xlink="http://www.w3.org/1999/xlink"
  xmlns:inkscape="http://www.inkscape.org/namespaces/inkscape"
  version="1.1"
  width="297.0022mm" height="210.0072mm" viewBox="0.0000 0.0000 297.0022 210.0072">
<title>SVG Image created as pcb-F_Cu.svg date 2026-06-29T19:27:43 </title>
  <desc>Image generated by PCBNEW </desc>
<g style="fill:#000000; fill-opacity:1.0000;stroke:#000000; stroke-opacity:1.0000;
stroke-linecap:round; stroke-linejoin:round;"
 transform="translate(0 0) scale(1 1)">
<path style="fill:#000000; fill-opacity:1.0000; stroke:none;fill-rule:evenodd;"
d="M 85.1500,55.2350
85.0543,55.2160
84.9732,55.1618
84.9190,55.0807
84.9000,54.9850
84.9000,53.2850
84.9190,53.1893
84.9732,53.1082
85.0543,53.0540
85.1500,53.0350
86.8500,53.0350
86.9457,53.0540
87.0268,53.1082
87.0810,53.1893
87.1000,53.2850
87.1000,54.9850
87.0810,55.0807
87.0268,55.1618
86.9457,55.2160
86.8500,55.2350
Z" /> 
</g>
<g style="fill:#000000; fill-opacity:1.0000; stroke:none;">
<circle cx="86.0000" cy="43.9750" r="1.1000" /> 
<path style="fill:#000000; fill-opacity:1.0000; stroke:none;fill-rule:evenodd;"
d="M 57.2100,17.5600
57.2100,16.0600
58.7100,16.0600
58.7100,17.5600
Z" /> 
<circle cx="60.5000" cy="16.8100" r="0.7500" /> 
<circle cx="63.0400" cy="16.8100" r="0.7500" /> 
<path style="fill:#000000; fill-opacity:1.0000; stroke:none;fill-rule:evenodd;"
d="M 65.6850,17.6100
65.6850,16.1100
67.1850,16.1100
67.1850,17.6100
Z" /> 
<circle cx="68.9750" cy="16.8600" r="0.7500" /> 
<circle cx="71.5150" cy="16.8600" r="0.7500" /> 
<path style="fill:#000000; fill-opacity:1.0000; stroke:none;fill-rule:evenodd;"
d="M 74.2350,17.6850
74.2350,16.1850
75.7350,16.1850
75.7350,17.6850
Z" /> 
<circle cx="77.5250" cy="16.9350" r="0.7500" /> 
<circle cx="80.0650" cy="16.9350" r="0.7500" /> 
<circle cx="73.8600" cy="40.6500" r="0.8000" /> 
<circle cx="66.2400" cy="40.6500" r="0.8000" /> 
<circle cx="73.7350" cy="32.8500" r="0.8000" /> 
<circle cx="66.1150" cy="32.8500" r="0.8000" /> 
<circle cx="86.1250" cy="30.0000" r="1.1000" /> 
<path style="fill:#000000; fill-opacity:1.0000; stroke:none;fill-rule:evenodd;"
d="M 85.2750,41.2600
85.1793,41.2410
85.0982,41.1868
85.0440,41.1057
85.0250,41.0100
85.0250,39.3100
85.0440,39.2143
85.0982,39.1332
85.1793,39.0790
85.2750,39.0600
86.9750,39.0600
87.0707,39.0790
87.1518,39.1332
87.2060,39.2143
87.2250,39.3100
87.2250,41.0100
87.2060,41.1057
87.1518,41.1868
87.0707,41.2410
86.9750,41.2600
Z" /> 
<path style="fill:#000000; fill-opacity:1.0000; stroke:none;fill-rule:evenodd;"
d="M 98.7750,22.0000
98.7750,24.5000
97.5750,24.5000
97.5750,22.0000
Z" /> 
<path style="fill:#000000; fill-opacity:1.0000; stroke:none;fill-rule:evenodd;"
d="M 95.7750,22.0000
95.7750,24.5000
94.5750,24.5000
94.5750,22.0000
Z" /> 
<path style="fill:#000000; fill-opacity:1.0000; stroke:none;fill-rule:evenodd;"
d="M 91.7750,22.0000
91.7750,24.5000
90.5750,24.5000
90.5750,22.0000
Z" /> 
<path style="fill:#000000; fill-opacity:1.0000; stroke:none;fill-rule:evenodd;"
d="M 90.6750,15.5000
90.6750,18.0000
89.4750,18.0000
89.4750,15.5000
Z" /> 
<circle cx="86.0500" cy="15.9000" r="1.1000" /> 
<path style="fill:#000000; fill-opacity:1.0000; stroke:none;fill-rule:evenodd;"
d="M 85.2000,27.1600
85.1043,27.1410
85.0232,27.0868
84.9690,27.0057
84.9500,26.9100
84.9500,25.2100
84.9690,25.1143
85.0232,25.0332
85.1043,24.9790
85.2000,24.9600
86.9000,24.9600
86.9957,24.9790
87.0768,25.0332
87.1310,25.1143
87.1500,25.2100
87.1500,26.9100
87.1310,27.0057
87.0768,27.0868
86.9957,27.1410
86.9000,27.1600
Z" /> 
<path style="fill:#000000; fill-opacity:1.0000; stroke:none;fill-rule:evenodd;"
d="M 98.7750,52.0000
98.7750,54.5000
97.5750,54.5000
97.5750,52.0000
Z" /> 
<path style="fill:#000000; fill-opacity:1.0000; stroke:none;fill-rule:evenodd;"
d="M 95.7750,52.0000
95.7750,54.5000
94.5750,54.5000
94.5750,52.0000
Z" /> 
<path style="fill:#000000; fill-opacity:1.0000; stroke:none;fill-rule:evenodd;"
d="M 91.7750,52.0000
91.7750,54.5000
90.5750,54.5000
90.5750,52.0000
Z" /> 
<path style="fill:#000000; fill-opacity:1.0000; stroke:none;fill-rule:evenodd;"
d="M 90.6750,45.5000
90.6750,48.0000
89.4750,48.0000
89.4750,45.5000
Z" /> 
<circle cx="73.8100" cy="44.0500" r="0.8000" /> 
<circle cx="66.1900" cy="44.0500" r="0.8000" /> 
<path style="fill:#000000; fill-opacity:1.0000; stroke:none;fill-rule:evenodd;"
d="M 44.7750,47.4750
44.7750,44.9750
45.9750,44.9750
45.9750,47.4750
Z" /> 
<path style="fill:#000000; fill-opacity:1.0000; stroke:none;fill-rule:evenodd;"
d="M 47.7750,47.4750
47.7750,44.9750
48.9750,44.9750
48.9750,47.4750
Z" /> 
<path style="fill:#000000; fill-opacity:1.0000; stroke:none;fill-rule:evenodd;"
d="M 51.7750,47.4750
51.7750,44.9750
52.9750,44.9750
52.9750,47.4750
Z" /> 
<path style="fill:#000000; fill-opacity:1.0000; stroke:none;fill-rule:evenodd;"
d="M 52.8750,53.9750
52.8750,51.4750
54.0750,51.4750
54.0750,53.9750
Z" /> 
<path style="fill:#000000; fill-opacity:1.0000; stroke:none;fill-rule:evenodd;"
d="M 52.8750,23.9750
52.8750,21.4750
54.0750,21.4750
54.0750,23.9750
Z" /> 
<path style="fill:#000000; fill-opacity:1.0000; stroke:none;fill-rule:evenodd;"
d="M 51.7750,17.4750
51.7750,14.9750
52.9750,14.9750
52.9750,17.4750
Z" /> 
<path style="fill:#000000; fill-opacity:1.0000; stroke:none;fill-rule:evenodd;"
d="M 47.7750,17.4750
47.7750,14.9750
48.9750,14.9750
48.9750,17.4750
Z" /> 
<path style="fill:#000000; fill-opacity:1.0000; stroke:none;fill-rule:evenodd;"
d="M 44.7750,17.4750
44.7750,14.9750
45.9750,14.9750
45.9750,17.4750
Z" /> 
<path style="fill:#000000; fill-opacity:1.0000; stroke:none;fill-rule:evenodd;"
d="M 76.5950,56.2600
76.5950,57.2600
74.0850,57.2600
74.0850,56.2600
Z" /> 
<path style="fill:#000000; fill-opacity:1.0000; stroke:none;fill-rule:evenodd;"
d="M 79.9050,58.8000
79.9050,59.8000
77.3950,59.8000
77.3950,58.8000
Z" /> 
<path style="fill:#000000; fill-opacity:1.0000; stroke:none;fill-rule:evenodd;"
d="M 76.0000,28.5800
76.0000,27.1800
79.0000,27.1800
79.0000,28.5800
Z" /> 
<path style="fill:#000000; fill-opacity:1.0000; stroke:none;fill-rule:evenodd;"
d="M 76.0000,31.1200
76.0000,29.7200
79.0000,29.7200
79.0000,31.1200
Z" /> 
<path style="fill:#000000; fill-opacity:1.0000; stroke:none;fill-rule:evenodd;"
d="M 76.0000,33.6600
76.0000,32.2600
79.0000,32.2600
79.0000,33.6600
Z" /> 
<path style="fill:#000000; fill-opacity:1.0000; stroke:none;fill-rule:evenodd;"
d="M 76.0000,36.2000
76.0000,34.8000
79.0000,34.8000
79.0000,36.2000
Z" /> 
<path style="fill:#000000; fill-opacity:1.0000; stroke:none;fill-rule:evenodd;"
d="M 76.0000,38.7400
76.0000,37.3400
79.0000,37.3400
79.0000,38.7400
Z" /> 
<path style="fill:#000000; fill-opacity:1.0000; stroke:none;fill-rule:evenodd;"
d="M 76.0000,41.2800
76.0000,39.8800
79.0000,39.8800
79.0000,41.2800
Z" /> 
<path style="fill:#000000; fill-opacity:1.0000; stroke:none;fill-rule:evenodd;"
d="M 76.0000,43.8200
76.0000,42.4200
79.0000,42.4200
79.0000,43.8200
Z" /> 
<path style="fill:#000000; fill-opacity:1.0000; stroke:none;fill-rule:evenodd;"
d="M 76.0000,46.3600
76.0000,44.9600
79.0000,44.9600
79.0000,46.3600
Z" /> 
<path style="fill:#000000; fill-opacity:1.0000; stroke:none;fill-rule:evenodd;"
d="M 76.0000,48.9000
76.0000,47.5000
79.0000,47.5000
79.0000,48.9000
Z" /> 
<path style="fill:#000000; fill-opacity:1.0000; stroke:none;fill-rule:evenodd;"
d="M 61.0000,28.5800
61.0000,27.1800
64.0000,27.1800
64.0000,28.5800
Z" /> 
<path style="fill:#000000; fill-opacity:1.0000; stroke:none;fill-rule:evenodd;"
d="M 61.0000,31.1200
61.0000,29.7200
64.0000,29.7200
64.0000,31.1200
Z" /> 
<path style="fill:#000000; fill-opacity:1.0000; stroke:none;fill-rule:evenodd;"
d="M 61.0000,33.6600
61.0000,32.2600
64.0000,32.2600
64.0000,33.6600
Z" /> 
<path style="fill:#000000; fill-opacity:1.0000; stroke:none;fill-rule:evenodd;"
d="M 61.0000,36.2000
61.0000,34.8000
64.0000,34.8000
64.0000,36.2000
Z" /> 
<path style="fill:#000000; fill-opacity:1.0000; stroke:none;fill-rule:evenodd;"
d="M 61.0000,38.7400
61.0000,37.3400
64.0000,37.3400
64.0000,38.7400
Z" /> 
<path style="fill:#000000; fill-opacity:1.0000; stroke:none;fill-rule:evenodd;"
d="M 61.0000,41.2800
61.0000,39.8800
64.0000,39.8800
64.0000,41.2800
Z" /> 
<path style="fill:#000000; fill-opacity:1.0000; stroke:none;fill-rule:evenodd;"
d="M 61.0000,43.8200
61.0000,42.4200
64.0000,42.4200
64.0000,43.8200
Z" /> 
<path style="fill:#000000; fill-opacity:1.0000; stroke:none;fill-rule:evenodd;"
d="M 61.0000,46.3600
61.0000,44.9600
64.0000,44.9600
64.0000,46.3600
Z" /> 
<path style="fill:#000000; fill-opacity:1.0000; stroke:none;fill-rule:evenodd;"
d="M 61.0000,48.9000
61.0000,47.5000
64.0000,47.5000
64.0000,48.9000
Z" /> 
<path style="fill:#000000; fill-opacity:1.0000; stroke:none;fill-rule:evenodd;"
d="M 90.6750,30.5000
90.6750,33.0000
89.4750,33.0000
89.4750,30.5000
Z" /> 
<path style="fill:#000000; fill-opacity:1.0000; stroke:none;fill-rule:evenodd;"
d="M 91.7750,37.0000
91.7750,39.5000
90.5750,39.5000
90.5750,37.0000
Z" /> 
<path style="fill:#000000; fill-opacity:1.0000; stroke:none;fill-rule:evenodd;"
d="M 95.7750,37.0000
95.7750,39.5000
94.5750,39.5000
94.5750,37.0000
Z" /> 
<path style="fill:#000000; fill-opacity:1.0000; stroke:none;fill-rule:evenodd;"
d="M 98.7750,37.0000
98.7750,39.5000
97.5750,39.5000
97.5750,37.0000
Z" /> 
<path style="fill:#000000; fill-opacity:1.0000; stroke:none;fill-rule:evenodd;"
d="M 44.7750,32.4750
44.7750,29.9750
45.9750,29.9750
45.9750,32.4750
Z" /> 
<path style="fill:#000000; fill-opacity:1.0000; stroke:none;fill-rule:evenodd;"
d="M 47.7750,32.4750
47.7750,29.9750
48.9750,29.9750
48.9750,32.4750
Z" /> 
<path style="fill:#000000; fill-opacity:1.0000; stroke:none;fill-rule:evenodd;"
d="M 51.7750,32.4750
51.7750,29.9750
52.9750,29.9750
52.9750,32.4750
Z" /> 
<path style="fill:#000000; fill-opacity:1.0000; stroke:none;fill-rule:evenodd;"
d="M 52.8750,38.9750
52.8750,36.4750
54.0750,36.4750
54.0750,38.9750
Z" /> 
<circle cx="55.8750" cy="51.2500" r="0.3000" /> 
<circle cx="75.3750" cy="53.0000" r="0.3000" /> 
<circle cx="66.7750" cy="20.2750" r="0.3000" /> 
<circle cx="81.3250" cy="31.5000" r="0.3000" /> 
<circle cx="72.1000" cy="20.6250" r="0.3000" /> 
<circle cx="82.3500" cy="28.9750" r="0.3000" /> 
<circle cx="58.0750" cy="44.1250" r="0.3000" /> 
<circle cx="46.7500" cy="27.2500" r="0.3000" /> 
<circle cx="57.5000" cy="26.5000" r="0.3000" /> 
<circle cx="49.8500" cy="26.2500" r="0.3000" /> 
<circle cx="55.9250" cy="28.3250" r="0.3000" /> 
<circle cx="49.8500" cy="28.2750" r="0.3000" /> 
<circle cx="79.7750" cy="20.9250" r="0.3000" /> 
<circle cx="83.4000" cy="20.9250" r="0.3000" /> 
<circle cx="77.4250" cy="22.9250" r="0.3000" /> 
<circle cx="72.8750" cy="22.9250" r="0.3000" /> 
</g>
<g style="fill:none; 
stroke:#000000; stroke-width:1.0000; stroke-opacity:1; 
stroke-linecap:round; stroke-linejoin:round;">
<path d="M75.3400 53.0350
L75.3750 53.0000
" />
<path d="M75.3400 56.7600
L75.3400 53.0350
" />
<path d="M54.9500 51.2500
L53.4750 52.7250
" />
<path d="M55.8750 51.2500
L54.9500 51.2500
" />
<path d="M48.3750 46.2250
L48.3750 51.2750
" />
<path d="M48.3750 51.2750
L51.9750 54.8750
" />
<path d="M51.9750 54.8750
L54.9750 54.8750
" />
<path d="M54.9750 54.8750
L58.2500 51.6000
" />
<path d="M58.2500 51.6000
L58.2500 47.3899
" />
<path d="M58.2500 47.3899
L56.6750 45.8149
" />
<path d="M56.6750 45.8149
L56.6750 43.5451
" />
<path d="M56.6750 43.5451
L57.4951 42.7250
" />
<path d="M57.4951 42.7250
L58.2500 42.7250
" />
<path d="M58.2500 40.8300
L61.0400 38.0400
" />
<path d="M58.2500 42.7250
L58.2500 40.8300
" />
<path d="M61.0400 38.0400
L62.5000 38.0400
" />
<path d="M78.6500 59.3000
L79.9000 58.0500
" />
<path d="M79.9000 58.0500
L79.9000 36.4400
" />
<path d="M79.9000 36.4400
L78.9600 35.5000
" />
<path d="M78.9600 35.5000
L77.5000 35.5000
" />
<path d="M45.3750 31.2250
L45.3750 42.2750
" />
<path d="M45.3750 42.2750
L42.2750 45.3750
" />
<path d="M42.2750 45.3750
L42.2750 50.0963
" />
<path d="M68.0250 57.6750
L77.5000 48.2000
" />
<path d="M42.2750 50.0963
L49.8537 57.6750
" />
<path d="M49.8537 57.6750
L68.0250 57.6750
" />
<path d="M86.0000 43.9750
L81.3250 39.3000
" />
<path d="M66.7750 20.2750
L66.5050 20.2750
" />
<path d="M66.5050 20.2750
L63.0400 16.8100
" />
<path d="M81.3250 39.3000
L81.3250 31.5000
" />
<path d="M73.7350 32.8500
L73.7350 35.7350
" />
<path d="M73.7350 35.7350
L76.0400 38.0400
" />
<path d="M76.0400 38.0400
L77.5000 38.0400
" />
<path d="M86.1250 30.0000
L83.3750 30.0000
" />
<path d="M72.1000 20.6250
L72.1000 17.4450
" />
<path d="M83.3750 30.0000
L82.3500 28.9750
" />
<path d="M72.1000 17.4450
L71.5150 16.8600
" />
<path d="M61.0400 48.2000
L62.5000 48.2000
" />
<path d="M45.3750 16.2250
L45.3750 25.8750
" />
<path d="M45.3750 25.8750
L46.7500 27.2500
" />
<path d="M58.0750 44.1250
L58.0750 45.2350
" />
<path d="M58.0750 45.2350
L61.0400 48.2000
" />
<path d="M48.3750 16.2250
L48.3750 24.7750
" />
<path d="M60.8600 32.9600
L62.5000 32.9600
" />
<path d="M57.5000 26.5000
L57.5000 29.6000
" />
<path d="M48.3750 24.7750
L49.8500 26.2500
" />
<path d="M57.5000 29.6000
L60.8600 32.9600
" />
<path d="M45.3750 46.2250
L45.3750 50.2549
" />
<path d="M45.3750 50.2549
L51.3951 56.2750
" />
<path d="M51.3951 56.2750
L65.5450 56.2750
" />
<path d="M65.5450 56.2750
L76.1600 45.6600
" />
<path d="M76.1600 45.6600
L77.5000 45.6600
" />
<path d="M61.0400 35.5000
L62.5000 35.5000
" />
<path d="M48.3750 31.2250
L48.3750 29.7500
" />
<path d="M48.3750 29.7500
L49.8500 28.2750
" />
<path d="M55.9250 28.3250
L55.9250 30.3850
" />
<path d="M55.9250 30.3850
L61.0400 35.5000
" />
<path d="M66.2400 40.6500
L68.9750 37.9150
" />
<path d="M68.9750 37.9150
L68.9750 16.8600
" />
<path d="M66.1150 32.8500
L66.1150 22.2185
" />
<path d="M60.7065 16.8100
L60.5000 16.8100
" />
<path d="M66.1150 22.2185
L60.7065 16.8100
" />
<path d="M86.0500 15.9000
L86.0500 18.2750
" />
<path d="M86.0500 18.2750
L83.4000 20.9250
" />
<path d="M79.7750 20.9250
L79.7750 17.2250
" />
<path d="M79.7750 17.2250
L80.0650 16.9350
" />
<path d="M86.0500 15.9000
L89.2250 15.9000
" />
<path d="M89.2250 15.9000
L90.0750 16.7500
" />
<path d="M91.1750 53.2500
L86.8850 53.2500
" />
<path d="M86.8850 53.2500
L86.0000 54.1350
" />
<path d="M86.1250 40.1600
L87.1350 40.1600
" />
<path d="M87.1350 40.1600
L91.5750 44.6000
" />
<path d="M91.5750 44.6000
L91.5750 49.0787
" />
<path d="M91.5750 49.0787
L91.1750 49.4787
" />
<path d="M91.1750 49.4787
L91.1750 53.2500
" />
<path d="M86.0000 43.9750
L87.3000 43.9750
" />
<path d="M87.3000 43.9750
L90.0750 46.7500
" />
<path d="M86.1250 30.0000
L88.3250 30.0000
" />
<path d="M88.3250 30.0000
L90.0750 31.7500
" />
<path d="M77.4250 17.0350
L77.5250 16.9350
" />
<path d="M66.1900 44.0500
L72.0350 38.2050
" />
<path d="M72.0350 23.7650
L72.8750 22.9250
" />
<path d="M72.0350 38.2050
L72.0350 23.7650
" />
<path d="M77.4250 22.9250
L77.4250 17.0350
" />
<path d="M73.8100 44.0500
L76.5700 44.0500
" />
<path d="M76.5700 44.0500
L77.5000 43.1200
" />
<path d="M73.8600 40.6500
L77.4300 40.6500
" />
<path d="M77.4300 40.6500
L77.5000 40.5800
" />
<path d="M77.5000 27.8800
L81.7150 23.6650
" />
<path d="M54.8400 13.7600
L52.3750 16.2250
" />
<path d="M81.7150 23.6650
L81.7150 16.2515
" />
<path d="M81.7150 16.2515
L79.2235 13.7600
" />
<path d="M79.2235 13.7600
L54.8400 13.7600
" />
<path d="M57.9600 16.8100
L57.9600 18.2400
" />
<path d="M57.9600 18.2400
L53.4750 22.7250
" />
<path d="M66.4350 16.8600
L64.7350 15.1600
" />
<path d="M64.7350 15.1600
L59.6100 15.1600
" />
<path d="M59.6100 15.1600
L57.9600 16.8100
" />
<path d="M74.9850 16.9350
L73.2600 15.2100
" />
<path d="M68.0850 15.2100
L66.4350 16.8600
" />
<path d="M73.2600 15.2100
L68.0850 15.2100
" />
<path d="M77.5000 30.4200
L76.0400 30.4200
" />
<path d="M76.0400 30.4200
L74.9850 29.3650
" />
<path d="M74.9850 29.3650
L74.9850 16.9350
" />
<path d="M86.0500 26.0600
L79.3200 26.0600
" />
<path d="M79.3200 26.0600
L77.5000 27.8800
" />
<path d="M86.0500 26.0600
L88.3650 26.0600
" />
<path d="M88.3650 26.0600
L91.1750 23.2500
" />
<path d="M91.1750 38.2500
L88.0350 38.2500
" />
<path d="M88.0350 38.2500
L86.1250 40.1600
" />
<path d="M91.1750 23.2500
L91.6268 23.7018
" />
<path d="M91.6268 34.0268
L91.1750 34.4787
" />
<path d="M91.1750 34.4787
L91.1750 38.2500
" />
<path d="M91.6268 23.7018
L91.6268 34.0268
" />
<path d="M52.3750 31.2250
L52.3750 35.1750
" />
<path d="M52.3750 35.1750
L51.9750 35.5750
" />
<path d="M51.9750 35.5750
L51.9750 45.8250
" />
<path d="M51.9750 45.8250
L52.3750 46.2250
" />
<path d="M52.3750 16.2250
L52.3750 20.1750
" />
<path d="M51.9750 30.8250
L52.3750 31.2250
" />
<path d="M52.3750 20.1750
L51.9750 20.5750
" />
<path d="M51.9750 20.5750
L51.9750 30.8250
" />
<path d="M53.4750 37.7250
L53.8750 37.3250
" />
<path d="M53.8750 37.3250
L53.8750 23.1250
" />
<path d="M53.8750 23.1250
L53.4750 22.7250
" />
<path d="M53.4750 52.7250
L53.8750 52.3250
" />
<path d="M53.8750 52.3250
L53.8750 38.1250
" />
<path d="M53.8750 38.1250
L53.4750 37.7250
" />
</g> 
</svg>
