<?xml version="1.0" standalone="no"?>
 <!DOCTYPE svg PUBLIC "-//W3C//DTD SVG 1.1//EN" 
 "http://www.w3.org/Graphics/SVG/1.1/DTD/svg11.dtd"> 
<svg
  xmlns:svg="http://www.w3.org/2000/svg"
  xmlns="http://www.w3.org/2000/svg"
  xmlns:xlink="http://www.w3.org/1999/xlink"
  xmlns:inkscape="http://www.inkscape.org/namespaces/inkscape"
  version="1.1"
  width="297.0022mm" height="210.0072mm" viewBox="0.0000 0.0000 297.0022 210.0072">
<title>SVG Image created as pcb-PTH-drl_map.svg date 2026-06-29T19:30:03 </title>
  <desc>Image generated by PCBNEW </desc>
<g style="fill:#000000; fill-opacity:1.0000;stroke:#000000; stroke-opacity:1.0000;
stroke-linecap:round; stroke-linejoin:round;"
 transform="translate(0 0) scale(1 1)">
<path style="fill:none; 
stroke:#000000; stroke-width:0.1159; stroke-opacity:1; 
stroke-linecap:round; stroke-linejoin:round;fill:none"
d="M 78.9680,5.0579
218.0342,5.0579
218.0342,120.9464
78.9680,120.9464
Z" /> 
</g>
<g style="fill:none; 
stroke:#000000; stroke-width:0.2318; stroke-opacity:1; 
stroke-linecap:round; stroke-linejoin:round;">
<path d="M90.0933 43.2432
L90.7887 43.9385
" />
<path d="M90.7887 43.2432
L90.0933 43.9385
" />
<path d="M97.2784 40.9254
L97.9737 41.6207
" />
<path d="M97.9737 40.9254
L97.2784 41.6207
" />
<path d="M97.2784 45.6189
L97.9737 46.3142
" />
<path d="M97.9737 45.6189
L97.2784 46.3142
" />
<path d="M111.2430 98.8696
L111.9383 99.5650
" />
<path d="M111.9383 98.8696
L111.2430 99.5650
" />
<path d="M111.3589 45.7348
L112.0542 46.4301
" />
<path d="M112.0542 45.7348
L111.3589 46.4301
" />
<path d="M115.0093 41.5049
L115.7047 42.2002
" />
<path d="M115.7047 41.5049
L115.0093 42.2002
" />
<path d="M116.3421 82.3555
L117.0374 83.0509
" />
<path d="M117.0374 82.3555
L116.3421 83.0509
" />
<path d="M136.5066 27.0767
L137.2020 27.7721
" />
<path d="M137.2020 27.0767
L136.5066 27.7721
" />
<path d="M148.8488 27.8880
L149.5441 28.5833
" />
<path d="M149.5441 27.8880
L148.8488 28.5833
" />
<path d="M150.6450 33.2188
L151.3404 33.9142
" />
<path d="M151.3404 33.2188
L150.6450 33.9142
" />
<path d="M156.4395 102.9257
L157.1348 103.6211
" />
<path d="M157.1348 102.9257
L156.4395 103.6211
" />
<path d="M161.1909 33.2188
L161.8862 33.9142
" />
<path d="M161.8862 33.2188
L161.1909 33.9142
" />
<path d="M166.6376 28.5833
L167.3330 29.2786
" />
<path d="M167.3330 28.5833
L166.6376 29.2786
" />
<path d="M170.2302 53.0937
L170.9255 53.7890
" />
<path d="M170.9255 53.0937
L170.2302 53.7890
" />
<path d="M172.6059 47.2413
L173.3012 47.9367
" />
<path d="M173.3012 47.2413
L172.6059 47.9367
" />
<path d="M175.0396 28.5833
L175.7349 29.2786
" />
<path d="M175.7349 28.5833
L175.0396 29.2786
" />
<circle cx="116.4232" cy="19.3933" r="0.9271" /> 
<circle cx="122.3103" cy="19.3933" r="0.9271" /> 
<circle cx="128.1974" cy="19.3933" r="0.9271" /> 
<circle cx="135.3246" cy="56.5704" r="0.9271" /> 
<circle cx="135.4984" cy="82.5294" r="0.9271" /> 
<circle cx="135.6143" cy="74.6489" r="0.9271" /> 
<circle cx="136.0663" cy="19.5092" r="0.9271" /> 
<circle cx="141.9534" cy="19.5092" r="0.9271" /> 
<circle cx="147.8405" cy="19.5092" r="0.9271" /> 
<circle cx="152.9860" cy="56.5704" r="0.9271" /> 
<circle cx="153.1598" cy="82.5294" r="0.9271" /> 
<circle cx="153.2757" cy="74.6489" r="0.9271" /> 
<circle cx="155.8832" cy="19.6831" r="0.9271" /> 
<circle cx="161.7703" cy="19.6831" r="0.9271" /> 
<circle cx="167.6575" cy="19.6831" r="0.9271" /> 
</g>
<g style="fill:none; 
stroke:#000000; stroke-width:0.2550; stroke-opacity:1; 
stroke-linecap:round; stroke-linejoin:round;">
<path d="M181.4134 81.0808
L181.4134 83.6303
" />
<path d="M180.1386 82.3555
L182.6882 82.3555
" />
<path d="M181.4134 104.6293
L181.4134 107.1788
" />
<path d="M180.1386 105.9041
L182.6882 105.9041
" />
<path d="M181.5293 16.0094
L181.5293 18.5589
" />
<path d="M180.2545 17.2842
L182.8041 17.2842
" />
<path d="M181.5293 39.5579
L181.5293 42.1075
" />
<path d="M180.2545 40.8327
L182.8041 40.8327
" />
<path d="M181.7031 48.6899
L181.7031 51.2395
" />
<path d="M180.4284 49.9647
L182.9779 49.9647
" />
<path d="M181.7031 72.2385
L181.7031 74.7880
" />
<path d="M180.4284 73.5132
L182.9779 73.5132
" />
</g>
<g style="fill:none; 
stroke:#000000; stroke-width:0.2000; stroke-opacity:1; 
stroke-linecap:round; stroke-linejoin:round;">
<text x="80.9101" y="124.2043"
textLength="14.8667" font-size="2.6667" lengthAdjust="spacingAndGlyphs"
text-anchor="start" opacity="0" stroke-opacity="0">Drill Map:</text>
<g class="stroked-text"><desc>Drill Map:</desc>
<path d="M81.5179 124.1192
L81.5179 122.1192
" />
<path d="M81.5179 122.1192
L81.9941 122.1192
" />
<path d="M81.9941 122.1192
L82.2798 122.2144
" />
<path d="M82.2798 122.2144
L82.4702 122.4049
" />
<path d="M82.4702 122.4049
L82.5655 122.5953
" />
<path d="M82.5655 122.5953
L82.6607 122.9763
" />
<path d="M82.6607 122.9763
L82.6607 123.2620
" />
<path d="M82.6607 123.2620
L82.5655 123.6430
" />
<path d="M82.5655 123.6430
L82.4702 123.8334
" />
<path d="M82.4702 123.8334
L82.2798 124.0239
" />
<path d="M82.2798 124.0239
L81.9941 124.1192
" />
<path d="M81.9941 124.1192
L81.5179 124.1192
" />
<path d="M83.5179 124.1192
L83.5179 122.7858
" />
<path d="M83.5179 123.1668
L83.6131 122.9763
" />
<path d="M83.6131 122.9763
L83.7083 122.8811
" />
<path d="M83.7083 122.8811
L83.8988 122.7858
" />
<path d="M83.8988 122.7858
L84.0893 122.7858
" />
<path d="M84.7560 124.1192
L84.7560 122.7858
" />
<path d="M84.7560 122.1192
L84.6607 122.2144
" />
<path d="M84.6607 122.2144
L84.7560 122.3096
" />
<path d="M84.7560 122.3096
L84.8512 122.2144
" />
<path d="M84.8512 122.2144
L84.7560 122.1192
" />
<path d="M84.7560 122.1192
L84.7560 122.3096
" />
<path d="M85.9941 124.1192
L85.8036 124.0239
" />
<path d="M85.8036 124.0239
L85.7083 123.8334
" />
<path d="M85.7083 123.8334
L85.7083 122.1192
" />
<path d="M87.0417 124.1192
L86.8512 124.0239
" />
<path d="M86.8512 124.0239
L86.7560 123.8334
" />
<path d="M86.7560 123.8334
L86.7560 122.1192
" />
<path d="M89.3274 124.1192
L89.3274 122.1192
" />
<path d="M89.3274 122.1192
L89.9941 123.5477
" />
<path d="M89.9941 123.5477
L90.6607 122.1192
" />
<path d="M90.6607 122.1192
L90.6607 124.1192
" />
<path d="M92.4702 124.1192
L92.4702 123.0715
" />
<path d="M92.4702 123.0715
L92.3750 122.8811
" />
<path d="M92.3750 122.8811
L92.1845 122.7858
" />
<path d="M92.1845 122.7858
L91.8036 122.7858
" />
<path d="M91.8036 122.7858
L91.6131 122.8811
" />
<path d="M92.4702 124.0239
L92.2798 124.1192
" />
<path d="M92.2798 124.1192
L91.8036 124.1192
" />
<path d="M91.8036 124.1192
L91.6131 124.0239
" />
<path d="M91.6131 124.0239
L91.5179 123.8334
" />
<path d="M91.5179 123.8334
L91.5179 123.6430
" />
<path d="M91.5179 123.6430
L91.6131 123.4525
" />
<path d="M91.6131 123.4525
L91.8036 123.3573
" />
<path d="M91.8036 123.3573
L92.2798 123.3573
" />
<path d="M92.2798 123.3573
L92.4702 123.2620
" />
<path d="M93.4226 122.7858
L93.4226 124.7858
" />
<path d="M93.4226 122.8811
L93.6131 122.7858
" />
<path d="M93.6131 122.7858
L93.9941 122.7858
" />
<path d="M93.9941 122.7858
L94.1845 122.8811
" />
<path d="M94.1845 122.8811
L94.2798 122.9763
" />
<path d="M94.2798 122.9763
L94.3750 123.1668
" />
<path d="M94.3750 123.1668
L94.3750 123.7382
" />
<path d="M94.3750 123.7382
L94.2798 123.9287
" />
<path d="M94.2798 123.9287
L94.1845 124.0239
" />
<path d="M94.1845 124.0239
L93.9941 124.1192
" />
<path d="M93.9941 124.1192
L93.6131 124.1192
" />
<path d="M93.6131 124.1192
L93.4226 124.0239
" />
<path d="M95.2322 123.9287
L95.3274 124.0239
" />
<path d="M95.3274 124.0239
L95.2322 124.1192
" />
<path d="M95.2322 124.1192
L95.1369 124.0239
" />
<path d="M95.1369 124.0239
L95.2322 123.9287
" />
<path d="M95.2322 123.9287
L95.2322 124.1192
" />
<path d="M95.2322 122.8811
L95.3274 122.9763
" />
<path d="M95.3274 122.9763
L95.2322 123.0715
" />
<path d="M95.2322 123.0715
L95.1369 122.9763
" />
<path d="M95.1369 122.9763
L95.2322 122.8811
" />
<path d="M95.2322 122.8811
L95.2322 123.0715
" />
</g></g>
<g style="fill:none; 
stroke:#000000; stroke-width:0.2318; stroke-opacity:1; 
stroke-linecap:round; stroke-linejoin:round;">
<path d="M78.2148 127.0567
L78.9101 127.7520
" />
<path d="M78.9101 127.0567
L78.2148 127.7520
" />
</g>
<g style="fill:none; 
stroke:#000000; stroke-width:0.2000; stroke-opacity:1; 
stroke-linecap:round; stroke-linejoin:round;">
<text x="80.9101" y="128.4043"
textLength="48.7714" font-size="2.6667" lengthAdjust="spacingAndGlyphs"
text-anchor="start" opacity="0" stroke-opacity="0">0.300mm / 0.0118" (16 holes)</text>
<g class="stroked-text"><desc>0.300mm / 0.0118" (16 holes)</desc>
<path d="M81.8988 126.3192
L82.0893 126.3192
" />
<path d="M82.0893 126.3192
L82.2798 126.4144
" />
<path d="M82.2798 126.4144
L82.3750 126.5096
" />
<path d="M82.3750 126.5096
L82.4702 126.7001
" />
<path d="M82.4702 126.7001
L82.5655 127.0811
" />
<path d="M82.5655 127.0811
L82.5655 127.5573
" />
<path d="M82.5655 127.5573
L82.4702 127.9382
" />
<path d="M82.4702 127.9382
L82.3750 128.1287
" />
<path d="M82.3750 128.1287
L82.2798 128.2239
" />
<path d="M82.2798 128.2239
L82.0893 128.3192
" />
<path d="M82.0893 128.3192
L81.8988 128.3192
" />
<path d="M81.8988 128.3192
L81.7083 128.2239
" />
<path d="M81.7083 128.2239
L81.6131 128.1287
" />
<path d="M81.6131 128.1287
L81.5179 127.9382
" />
<path d="M81.5179 127.9382
L81.4226 127.5573
" />
<path d="M81.4226 127.5573
L81.4226 127.0811
" />
<path d="M81.4226 127.0811
L81.5179 126.7001
" />
<path d="M81.5179 126.7001
L81.6131 126.5096
" />
<path d="M81.6131 126.5096
L81.7083 126.4144
" />
<path d="M81.7083 126.4144
L81.8988 126.3192
" />
<path d="M83.4226 128.1287
L83.5179 128.2239
" />
<path d="M83.5179 128.2239
L83.4226 128.3192
" />
<path d="M83.4226 128.3192
L83.3274 128.2239
" />
<path d="M83.3274 128.2239
L83.4226 128.1287
" />
<path d="M83.4226 128.1287
L83.4226 128.3192
" />
<path d="M84.1845 126.3192
L85.4226 126.3192
" />
<path d="M85.4226 126.3192
L84.7560 127.0811
" />
<path d="M84.7560 127.0811
L85.0417 127.0811
" />
<path d="M85.0417 127.0811
L85.2322 127.1763
" />
<path d="M85.2322 127.1763
L85.3274 127.2715
" />
<path d="M85.3274 127.2715
L85.4226 127.4620
" />
<path d="M85.4226 127.4620
L85.4226 127.9382
" />
<path d="M85.4226 127.9382
L85.3274 128.1287
" />
<path d="M85.3274 128.1287
L85.2322 128.2239
" />
<path d="M85.2322 128.2239
L85.0417 128.3192
" />
<path d="M85.0417 128.3192
L84.4702 128.3192
" />
<path d="M84.4702 128.3192
L84.2798 128.2239
" />
<path d="M84.2798 128.2239
L84.1845 128.1287
" />
<path d="M86.6607 126.3192
L86.8512 126.3192
" />
<path d="M86.8512 126.3192
L87.0417 126.4144
" />
<path d="M87.0417 126.4144
L87.1369 126.5096
" />
<path d="M87.1369 126.5096
L87.2322 126.7001
" />
<path d="M87.2322 126.7001
L87.3274 127.0811
" />
<path d="M87.3274 127.0811
L87.3274 127.5573
" />
<path d="M87.3274 127.5573
L87.2322 127.9382
" />
<path d="M87.2322 127.9382
L87.1369 128.1287
" />
<path d="M87.1369 128.1287
L87.0417 128.2239
" />
<path d="M87.0417 128.2239
L86.8512 128.3192
" />
<path d="M86.8512 128.3192
L86.6607 128.3192
" />
<path d="M86.6607 128.3192
L86.4702 128.2239
" />
<path d="M86.4702 128.2239
L86.3750 128.1287
" />
<path d="M86.3750 128.1287
L86.2798 127.9382
" />
<path d="M86.2798 127.9382
L86.1845 127.5573
" />
<path d="M86.1845 127.5573
L86.1845 127.0811
" />
<path d="M86.1845 127.0811
L86.2798 126.7001
" />
<path d="M86.2798 126.7001
L86.3750 126.5096
" />
<path d="M86.3750 126.5096
L86.4702 126.4144
" />
<path d="M86.4702 126.4144
L86.6607 126.3192
" />
<path d="M88.5655 126.3192
L88.7560 126.3192
" />
<path d="M88.7560 126.3192
L88.9464 126.4144
" />
<path d="M88.9464 126.4144
L89.0417 126.5096
" />
<path d="M89.0417 126.5096
L89.1369 126.7001
" />
<path d="M89.1369 126.7001
L89.2322 127.0811
" />
<path d="M89.2322 127.0811
L89.2322 127.5573
" />
<path d="M89.2322 127.5573
L89.1369 127.9382
" />
<path d="M89.1369 127.9382
L89.0417 128.1287
" />
<path d="M89.0417 128.1287
L88.9464 128.2239
" />
<path d="M88.9464 128.2239
L88.7560 128.3192
" />
<path d="M88.7560 128.3192
L88.5655 128.3192
" />
<path d="M88.5655 128.3192
L88.3750 128.2239
" />
<path d="M88.3750 128.2239
L88.2798 128.1287
" />
<path d="M88.2798 128.1287
L88.1845 127.9382
" />
<path d="M88.1845 127.9382
L88.0893 127.5573
" />
<path d="M88.0893 127.5573
L88.0893 127.0811
" />
<path d="M88.0893 127.0811
L88.1845 126.7001
" />
<path d="M88.1845 126.7001
L88.2798 126.5096
" />
<path d="M88.2798 126.5096
L88.3750 126.4144
" />
<path d="M88.3750 126.4144
L88.5655 126.3192
" />
<path d="M90.0893 128.3192
L90.0893 126.9858
" />
<path d="M90.0893 127.1763
L90.1845 127.0811
" />
<path d="M90.1845 127.0811
L90.3750 126.9858
" />
<path d="M90.3750 126.9858
L90.6607 126.9858
" />
<path d="M90.6607 126.9858
L90.8512 127.0811
" />
<path d="M90.8512 127.0811
L90.9464 127.2715
" />
<path d="M90.9464 127.2715
L90.9464 128.3192
" />
<path d="M90.9464 127.2715
L91.0417 127.0811
" />
<path d="M91.0417 127.0811
L91.2322 126.9858
" />
<path d="M91.2322 126.9858
L91.5179 126.9858
" />
<path d="M91.5179 126.9858
L91.7083 127.0811
" />
<path d="M91.7083 127.0811
L91.8036 127.2715
" />
<path d="M91.8036 127.2715
L91.8036 128.3192
" />
<path d="M92.7560 128.3192
L92.7560 126.9858
" />
<path d="M92.7560 127.1763
L92.8512 127.0811
" />
<path d="M92.8512 127.0811
L93.0417 126.9858
" />
<path d="M93.0417 126.9858
L93.3274 126.9858
" />
<path d="M93.3274 126.9858
L93.5179 127.0811
" />
<path d="M93.5179 127.0811
L93.6131 127.2715
" />
<path d="M93.6131 127.2715
L93.6131 128.3192
" />
<path d="M93.6131 127.2715
L93.7083 127.0811
" />
<path d="M93.7083 127.0811
L93.8988 126.9858
" />
<path d="M93.8988 126.9858
L94.1845 126.9858
" />
<path d="M94.1845 126.9858
L94.3750 127.0811
" />
<path d="M94.3750 127.0811
L94.4702 127.2715
" />
<path d="M94.4702 127.2715
L94.4702 128.3192
" />
<path d="M98.3750 126.2239
L96.6607 128.7953
" />
<path d="M100.9464 126.3192
L101.1369 126.3192
" />
<path d="M101.1369 126.3192
L101.3274 126.4144
" />
<path d="M101.3274 126.4144
L101.4226 126.5096
" />
<path d="M101.4226 126.5096
L101.5179 126.7001
" />
<path d="M101.5179 126.7001
L101.6131 127.0811
" />
<path d="M101.6131 127.0811
L101.6131 127.5573
" />
<path d="M101.6131 127.5573
L101.5179 127.9382
" />
<path d="M101.5179 127.9382
L101.4226 128.1287
" />
<path d="M101.4226 128.1287
L101.3274 128.2239
" />
<path d="M101.3274 128.2239
L101.1369 128.3192
" />
<path d="M101.1369 128.3192
L100.9464 128.3192
" />
<path d="M100.9464 128.3192
L100.7560 128.2239
" />
<path d="M100.7560 128.2239
L100.6607 128.1287
" />
<path d="M100.6607 128.1287
L100.5655 127.9382
" />
<path d="M100.5655 127.9382
L100.4702 127.5573
" />
<path d="M100.4702 127.5573
L100.4702 127.0811
" />
<path d="M100.4702 127.0811
L100.5655 126.7001
" />
<path d="M100.5655 126.7001
L100.6607 126.5096
" />
<path d="M100.6607 126.5096
L100.7560 126.4144
" />
<path d="M100.7560 126.4144
L100.9464 126.3192
" />
<path d="M102.4703 128.1287
L102.5655 128.2239
" />
<path d="M102.5655 128.2239
L102.4703 128.3192
" />
<path d="M102.4703 128.3192
L102.3750 128.2239
" />
<path d="M102.3750 128.2239
L102.4703 128.1287
" />
<path d="M102.4703 128.1287
L102.4703 128.3192
" />
<path d="M103.8036 126.3192
L103.9941 126.3192
" />
<path d="M103.9941 126.3192
L104.1845 126.4144
" />
<path d="M104.1845 126.4144
L104.2798 126.5096
" />
<path d="M104.2798 126.5096
L104.3750 126.7001
" />
<path d="M104.3750 126.7001
L104.4703 127.0811
" />
<path d="M104.4703 127.0811
L104.4703 127.5573
" />
<path d="M104.4703 127.5573
L104.3750 127.9382
" />
<path d="M104.3750 127.9382
L104.2798 128.1287
" />
<path d="M104.2798 128.1287
L104.1845 128.2239
" />
<path d="M104.1845 128.2239
L103.9941 128.3192
" />
<path d="M103.9941 128.3192
L103.8036 128.3192
" />
<path d="M103.8036 128.3192
L103.6131 128.2239
" />
<path d="M103.6131 128.2239
L103.5179 128.1287
" />
<path d="M103.5179 128.1287
L103.4226 127.9382
" />
<path d="M103.4226 127.9382
L103.3274 127.5573
" />
<path d="M103.3274 127.5573
L103.3274 127.0811
" />
<path d="M103.3274 127.0811
L103.4226 126.7001
" />
<path d="M103.4226 126.7001
L103.5179 126.5096
" />
<path d="M103.5179 126.5096
L103.6131 126.4144
" />
<path d="M103.6131 126.4144
L103.8036 126.3192
" />
<path d="M106.3750 128.3192
L105.2322 128.3192
" />
<path d="M105.8036 128.3192
L105.8036 126.3192
" />
<path d="M105.8036 126.3192
L105.6131 126.6049
" />
<path d="M105.6131 126.6049
L105.4226 126.7953
" />
<path d="M105.4226 126.7953
L105.2322 126.8906
" />
<path d="M108.2798 128.3192
L107.1369 128.3192
" />
<path d="M107.7083 128.3192
L107.7083 126.3192
" />
<path d="M107.7083 126.3192
L107.5179 126.6049
" />
<path d="M107.5179 126.6049
L107.3274 126.7953
" />
<path d="M107.3274 126.7953
L107.1369 126.8906
" />
<path d="M109.4226 127.1763
L109.2322 127.0811
" />
<path d="M109.2322 127.0811
L109.1369 126.9858
" />
<path d="M109.1369 126.9858
L109.0417 126.7953
" />
<path d="M109.0417 126.7953
L109.0417 126.7001
" />
<path d="M109.0417 126.7001
L109.1369 126.5096
" />
<path d="M109.1369 126.5096
L109.2322 126.4144
" />
<path d="M109.2322 126.4144
L109.4226 126.3192
" />
<path d="M109.4226 126.3192
L109.8036 126.3192
" />
<path d="M109.8036 126.3192
L109.9941 126.4144
" />
<path d="M109.9941 126.4144
L110.0893 126.5096
" />
<path d="M110.0893 126.5096
L110.1845 126.7001
" />
<path d="M110.1845 126.7001
L110.1845 126.7953
" />
<path d="M110.1845 126.7953
L110.0893 126.9858
" />
<path d="M110.0893 126.9858
L109.9941 127.0811
" />
<path d="M109.9941 127.0811
L109.8036 127.1763
" />
<path d="M109.8036 127.1763
L109.4226 127.1763
" />
<path d="M109.4226 127.1763
L109.2322 127.2715
" />
<path d="M109.2322 127.2715
L109.1369 127.3668
" />
<path d="M109.1369 127.3668
L109.0417 127.5573
" />
<path d="M109.0417 127.5573
L109.0417 127.9382
" />
<path d="M109.0417 127.9382
L109.1369 128.1287
" />
<path d="M109.1369 128.1287
L109.2322 128.2239
" />
<path d="M109.2322 128.2239
L109.4226 128.3192
" />
<path d="M109.4226 128.3192
L109.8036 128.3192
" />
<path d="M109.8036 128.3192
L109.9941 128.2239
" />
<path d="M109.9941 128.2239
L110.0893 128.1287
" />
<path d="M110.0893 128.1287
L110.1845 127.9382
" />
<path d="M110.1845 127.9382
L110.1845 127.5573
" />
<path d="M110.1845 127.5573
L110.0893 127.3668
" />
<path d="M110.0893 127.3668
L109.9941 127.2715
" />
<path d="M109.9941 127.2715
L109.8036 127.1763
" />
<path d="M110.9464 126.3192
L110.9464 126.7001
" />
<path d="M111.7084 126.3192
L111.7084 126.7001
" />
<path d="M114.6607 129.0811
L114.5655 128.9858
" />
<path d="M114.5655 128.9858
L114.3750 128.7001
" />
<path d="M114.3750 128.7001
L114.2798 128.5096
" />
<path d="M114.2798 128.5096
L114.1845 128.2239
" />
<path d="M114.1845 128.2239
L114.0893 127.7477
" />
<path d="M114.0893 127.7477
L114.0893 127.3668
" />
<path d="M114.0893 127.3668
L114.1845 126.8906
" />
<path d="M114.1845 126.8906
L114.2798 126.6049
" />
<path d="M114.2798 126.6049
L114.3750 126.4144
" />
<path d="M114.3750 126.4144
L114.5655 126.1287
" />
<path d="M114.5655 126.1287
L114.6607 126.0334
" />
<path d="M116.4703 128.3192
L115.3274 128.3192
" />
<path d="M115.8988 128.3192
L115.8988 126.3192
" />
<path d="M115.8988 126.3192
L115.7084 126.6049
" />
<path d="M115.7084 126.6049
L115.5179 126.7953
" />
<path d="M115.5179 126.7953
L115.3274 126.8906
" />
<path d="M118.1845 126.3192
L117.8036 126.3192
" />
<path d="M117.8036 126.3192
L117.6131 126.4144
" />
<path d="M117.6131 126.4144
L117.5179 126.5096
" />
<path d="M117.5179 126.5096
L117.3274 126.7953
" />
<path d="M117.3274 126.7953
L117.2322 127.1763
" />
<path d="M117.2322 127.1763
L117.2322 127.9382
" />
<path d="M117.2322 127.9382
L117.3274 128.1287
" />
<path d="M117.3274 128.1287
L117.4226 128.2239
" />
<path d="M117.4226 128.2239
L117.6131 128.3192
" />
<path d="M117.6131 128.3192
L117.9941 128.3192
" />
<path d="M117.9941 128.3192
L118.1845 128.2239
" />
<path d="M118.1845 128.2239
L118.2798 128.1287
" />
<path d="M118.2798 128.1287
L118.3750 127.9382
" />
<path d="M118.3750 127.9382
L118.3750 127.4620
" />
<path d="M118.3750 127.4620
L118.2798 127.2715
" />
<path d="M118.2798 127.2715
L118.1845 127.1763
" />
<path d="M118.1845 127.1763
L117.9941 127.0811
" />
<path d="M117.9941 127.0811
L117.6131 127.0811
" />
<path d="M117.6131 127.0811
L117.4226 127.1763
" />
<path d="M117.4226 127.1763
L117.3274 127.2715
" />
<path d="M117.3274 127.2715
L117.2322 127.4620
" />
<path d="M120.7560 128.3192
L120.7560 126.3192
" />
<path d="M121.6131 128.3192
L121.6131 127.2715
" />
<path d="M121.6131 127.2715
L121.5179 127.0811
" />
<path d="M121.5179 127.0811
L121.3274 126.9858
" />
<path d="M121.3274 126.9858
L121.0417 126.9858
" />
<path d="M121.0417 126.9858
L120.8512 127.0811
" />
<path d="M120.8512 127.0811
L120.7560 127.1763
" />
<path d="M122.8512 128.3192
L122.6607 128.2239
" />
<path d="M122.6607 128.2239
L122.5655 128.1287
" />
<path d="M122.5655 128.1287
L122.4703 127.9382
" />
<path d="M122.4703 127.9382
L122.4703 127.3668
" />
<path d="M122.4703 127.3668
L122.5655 127.1763
" />
<path d="M122.5655 127.1763
L122.6607 127.0811
" />
<path d="M122.6607 127.0811
L122.8512 126.9858
" />
<path d="M122.8512 126.9858
L123.1369 126.9858
" />
<path d="M123.1369 126.9858
L123.3274 127.0811
" />
<path d="M123.3274 127.0811
L123.4226 127.1763
" />
<path d="M123.4226 127.1763
L123.5179 127.3668
" />
<path d="M123.5179 127.3668
L123.5179 127.9382
" />
<path d="M123.5179 127.9382
L123.4226 128.1287
" />
<path d="M123.4226 128.1287
L123.3274 128.2239
" />
<path d="M123.3274 128.2239
L123.1369 128.3192
" />
<path d="M123.1369 128.3192
L122.8512 128.3192
" />
<path d="M124.6607 128.3192
L124.4703 128.2239
" />
<path d="M124.4703 128.2239
L124.3750 128.0334
" />
<path d="M124.3750 128.0334
L124.3750 126.3192
" />
<path d="M126.1845 128.2239
L125.9941 128.3192
" />
<path d="M125.9941 128.3192
L125.6131 128.3192
" />
<path d="M125.6131 128.3192
L125.4226 128.2239
" />
<path d="M125.4226 128.2239
L125.3274 128.0334
" />
<path d="M125.3274 128.0334
L125.3274 127.2715
" />
<path d="M125.3274 127.2715
L125.4226 127.0811
" />
<path d="M125.4226 127.0811
L125.6131 126.9858
" />
<path d="M125.6131 126.9858
L125.9941 126.9858
" />
<path d="M125.9941 126.9858
L126.1845 127.0811
" />
<path d="M126.1845 127.0811
L126.2798 127.2715
" />
<path d="M126.2798 127.2715
L126.2798 127.4620
" />
<path d="M126.2798 127.4620
L125.3274 127.6525
" />
<path d="M127.0417 128.2239
L127.2322 128.3192
" />
<path d="M127.2322 128.3192
L127.6131 128.3192
" />
<path d="M127.6131 128.3192
L127.8036 128.2239
" />
<path d="M127.8036 128.2239
L127.8988 128.0334
" />
<path d="M127.8988 128.0334
L127.8988 127.9382
" />
<path d="M127.8988 127.9382
L127.8036 127.7477
" />
<path d="M127.8036 127.7477
L127.6131 127.6525
" />
<path d="M127.6131 127.6525
L127.3274 127.6525
" />
<path d="M127.3274 127.6525
L127.1369 127.5573
" />
<path d="M127.1369 127.5573
L127.0417 127.3668
" />
<path d="M127.0417 127.3668
L127.0417 127.2715
" />
<path d="M127.0417 127.2715
L127.1369 127.0811
" />
<path d="M127.1369 127.0811
L127.3274 126.9858
" />
<path d="M127.3274 126.9858
L127.6131 126.9858
" />
<path d="M127.6131 126.9858
L127.8036 127.0811
" />
<path d="M128.5655 129.0811
L128.6607 128.9858
" />
<path d="M128.6607 128.9858
L128.8512 128.7001
" />
<path d="M128.8512 128.7001
L128.9465 128.5096
" />
<path d="M128.9465 128.5096
L129.0417 128.2239
" />
<path d="M129.0417 128.2239
L129.1369 127.7477
" />
<path d="M129.1369 127.7477
L129.1369 127.3668
" />
<path d="M129.1369 127.3668
L129.0417 126.8906
" />
<path d="M129.0417 126.8906
L128.9465 126.6049
" />
<path d="M128.9465 126.6049
L128.8512 126.4144
" />
<path d="M128.8512 126.4144
L128.6607 126.1287
" />
<path d="M128.6607 126.1287
L128.5655 126.0334
" />
</g></g>
<g style="fill:none; 
stroke:#000000; stroke-width:0.2318; stroke-opacity:1; 
stroke-linecap:round; stroke-linejoin:round;">
<circle cx="77.9830" cy="130.0443" r="0.9271" /> 
</g>
<g style="fill:none; 
stroke:#000000; stroke-width:0.2000; stroke-opacity:1; 
stroke-linecap:round; stroke-linejoin:round;">
<text x="80.9101" y="131.0443"
textLength="48.7714" font-size="2.6667" lengthAdjust="spacingAndGlyphs"
text-anchor="start" opacity="0" stroke-opacity="0">0.800mm / 0.0315" (15 holes)</text>
<g class="stroked-text"><desc>0.800mm / 0.0315" (15 holes)</desc>
<path d="M81.8988 128.9592
L82.0893 128.9592
" />
<path d="M82.0893 128.9592
L82.2798 129.0544
" />
<path d="M82.2798 129.0544
L82.3750 129.1496
" />
<path d="M82.3750 129.1496
L82.4702 129.3401
" />
<path d="M82.4702 129.3401
L82.5655 129.7211
" />
<path d="M82.5655 129.7211
L82.5655 130.1973
" />
<path d="M82.5655 130.1973
L82.4702 130.5782
" />
<path d="M82.4702 130.5782
L82.3750 130.7687
" />
<path d="M82.3750 130.7687
L82.2798 130.8639
" />
<path d="M82.2798 130.8639
L82.0893 130.9592
" />
<path d="M82.0893 130.9592
L81.8988 130.9592
" />
<path d="M81.8988 130.9592
L81.7083 130.8639
" />
<path d="M81.7083 130.8639
L81.6131 130.7687
" />
<path d="M81.6131 130.7687
L81.5179 130.5782
" />
<path d="M81.5179 130.5782
L81.4226 130.1973
" />
<path d="M81.4226 130.1973
L81.4226 129.7211
" />
<path d="M81.4226 129.7211
L81.5179 129.3401
" />
<path d="M81.5179 129.3401
L81.6131 129.1496
" />
<path d="M81.6131 129.1496
L81.7083 129.0544
" />
<path d="M81.7083 129.0544
L81.8988 128.9592
" />
<path d="M83.4226 130.7687
L83.5179 130.8639
" />
<path d="M83.5179 130.8639
L83.4226 130.9592
" />
<path d="M83.4226 130.9592
L83.3274 130.8639
" />
<path d="M83.3274 130.8639
L83.4226 130.7687
" />
<path d="M83.4226 130.7687
L83.4226 130.9592
" />
<path d="M84.6607 129.8163
L84.4702 129.7211
" />
<path d="M84.4702 129.7211
L84.3750 129.6258
" />
<path d="M84.3750 129.6258
L84.2798 129.4353
" />
<path d="M84.2798 129.4353
L84.2798 129.3401
" />
<path d="M84.2798 129.3401
L84.3750 129.1496
" />
<path d="M84.3750 129.1496
L84.4702 129.0544
" />
<path d="M84.4702 129.0544
L84.6607 128.9592
" />
<path d="M84.6607 128.9592
L85.0417 128.9592
" />
<path d="M85.0417 128.9592
L85.2322 129.0544
" />
<path d="M85.2322 129.0544
L85.3274 129.1496
" />
<path d="M85.3274 129.1496
L85.4226 129.3401
" />
<path d="M85.4226 129.3401
L85.4226 129.4353
" />
<path d="M85.4226 129.4353
L85.3274 129.6258
" />
<path d="M85.3274 129.6258
L85.2322 129.7211
" />
<path d="M85.2322 129.7211
L85.0417 129.8163
" />
<path d="M85.0417 129.8163
L84.6607 129.8163
" />
<path d="M84.6607 129.8163
L84.4702 129.9115
" />
<path d="M84.4702 129.9115
L84.3750 130.0068
" />
<path d="M84.3750 130.0068
L84.2798 130.1973
" />
<path d="M84.2798 130.1973
L84.2798 130.5782
" />
<path d="M84.2798 130.5782
L84.3750 130.7687
" />
<path d="M84.3750 130.7687
L84.4702 130.8639
" />
<path d="M84.4702 130.8639
L84.6607 130.9592
" />
<path d="M84.6607 130.9592
L85.0417 130.9592
" />
<path d="M85.0417 130.9592
L85.2322 130.8639
" />
<path d="M85.2322 130.8639
L85.3274 130.7687
" />
<path d="M85.3274 130.7687
L85.4226 130.5782
" />
<path d="M85.4226 130.5782
L85.4226 130.1973
" />
<path d="M85.4226 130.1973
L85.3274 130.0068
" />
<path d="M85.3274 130.0068
L85.2322 129.9115
" />
<path d="M85.2322 129.9115
L85.0417 129.8163
" />
<path d="M86.6607 128.9592
L86.8512 128.9592
" />
<path d="M86.8512 128.9592
L87.0417 129.0544
" />
<path d="M87.0417 129.0544
L87.1369 129.1496
" />
<path d="M87.1369 129.1496
L87.2322 129.3401
" />
<path d="M87.2322 129.3401
L87.3274 129.7211
" />
<path d="M87.3274 129.7211
L87.3274 130.1973
" />
<path d="M87.3274 130.1973
L87.2322 130.5782
" />
<path d="M87.2322 130.5782
L87.1369 130.7687
" />
<path d="M87.1369 130.7687
L87.0417 130.8639
" />
<path d="M87.0417 130.8639
L86.8512 130.9592
" />
<path d="M86.8512 130.9592
L86.6607 130.9592
" />
<path d="M86.6607 130.9592
L86.4702 130.8639
" />
<path d="M86.4702 130.8639
L86.3750 130.7687
" />
<path d="M86.3750 130.7687
L86.2798 130.5782
" />
<path d="M86.2798 130.5782
L86.1845 130.1973
" />
<path d="M86.1845 130.1973
L86.1845 129.7211
" />
<path d="M86.1845 129.7211
L86.2798 129.3401
" />
<path d="M86.2798 129.3401
L86.3750 129.1496
" />
<path d="M86.3750 129.1496
L86.4702 129.0544
" />
<path d="M86.4702 129.0544
L86.6607 128.9592
" />
<path d="M88.5655 128.9592
L88.7560 128.9592
" />
<path d="M88.7560 128.9592
L88.9464 129.0544
" />
<path d="M88.9464 129.0544
L89.0417 129.1496
" />
<path d="M89.0417 129.1496
L89.1369 129.3401
" />
<path d="M89.1369 129.3401
L89.2322 129.7211
" />
<path d="M89.2322 129.7211
L89.2322 130.1973
" />
<path d="M89.2322 130.1973
L89.1369 130.5782
" />
<path d="M89.1369 130.5782
L89.0417 130.7687
" />
<path d="M89.0417 130.7687
L88.9464 130.8639
" />
<path d="M88.9464 130.8639
L88.7560 130.9592
" />
<path d="M88.7560 130.9592
L88.5655 130.9592
" />
<path d="M88.5655 130.9592
L88.3750 130.8639
" />
<path d="M88.3750 130.8639
L88.2798 130.7687
" />
<path d="M88.2798 130.7687
L88.1845 130.5782
" />
<path d="M88.1845 130.5782
L88.0893 130.1973
" />
<path d="M88.0893 130.1973
L88.0893 129.7211
" />
<path d="M88.0893 129.7211
L88.1845 129.3401
" />
<path d="M88.1845 129.3401
L88.2798 129.1496
" />
<path d="M88.2798 129.1496
L88.3750 129.0544
" />
<path d="M88.3750 129.0544
L88.5655 128.9592
" />
<path d="M90.0893 130.9592
L90.0893 129.6258
" />
<path d="M90.0893 129.8163
L90.1845 129.7211
" />
<path d="M90.1845 129.7211
L90.3750 129.6258
" />
<path d="M90.3750 129.6258
L90.6607 129.6258
" />
<path d="M90.6607 129.6258
L90.8512 129.7211
" />
<path d="M90.8512 129.7211
L90.9464 129.9115
" />
<path d="M90.9464 129.9115
L90.9464 130.9592
" />
<path d="M90.9464 129.9115
L91.0417 129.7211
" />
<path d="M91.0417 129.7211
L91.2322 129.6258
" />
<path d="M91.2322 129.6258
L91.5179 129.6258
" />
<path d="M91.5179 129.6258
L91.7083 129.7211
" />
<path d="M91.7083 129.7211
L91.8036 129.9115
" />
<path d="M91.8036 129.9115
L91.8036 130.9592
" />
<path d="M92.7560 130.9592
L92.7560 129.6258
" />
<path d="M92.7560 129.8163
L92.8512 129.7211
" />
<path d="M92.8512 129.7211
L93.0417 129.6258
" />
<path d="M93.0417 129.6258
L93.3274 129.6258
" />
<path d="M93.3274 129.6258
L93.5179 129.7211
" />
<path d="M93.5179 129.7211
L93.6131 129.9115
" />
<path d="M93.6131 129.9115
L93.6131 130.9592
" />
<path d="M93.6131 129.9115
L93.7083 129.7211
" />
<path d="M93.7083 129.7211
L93.8988 129.6258
" />
<path d="M93.8988 129.6258
L94.1845 129.6258
" />
<path d="M94.1845 129.6258
L94.3750 129.7211
" />
<path d="M94.3750 129.7211
L94.4702 129.9115
" />
<path d="M94.4702 129.9115
L94.4702 130.9592
" />
<path d="M98.3750 128.8639
L96.6607 131.4353
" />
<path d="M100.9464 128.9592
L101.1369 128.9592
" />
<path d="M101.1369 128.9592
L101.3274 129.0544
" />
<path d="M101.3274 129.0544
L101.4226 129.1496
" />
<path d="M101.4226 129.1496
L101.5179 129.3401
" />
<path d="M101.5179 129.3401
L101.6131 129.7211
" />
<path d="M101.6131 129.7211
L101.6131 130.1973
" />
<path d="M101.6131 130.1973
L101.5179 130.5782
" />
<path d="M101.5179 130.5782
L101.4226 130.7687
" />
<path d="M101.4226 130.7687
L101.3274 130.8639
" />
<path d="M101.3274 130.8639
L101.1369 130.9592
" />
<path d="M101.1369 130.9592
L100.9464 130.9592
" />
<path d="M100.9464 130.9592
L100.7560 130.8639
" />
<path d="M100.7560 130.8639
L100.6607 130.7687
" />
<path d="M100.6607 130.7687
L100.5655 130.5782
" />
<path d="M100.5655 130.5782
L100.4702 130.1973
" />
<path d="M100.4702 130.1973
L100.4702 129.7211
" />
<path d="M100.4702 129.7211
L100.5655 129.3401
" />
<path d="M100.5655 129.3401
L100.6607 129.1496
" />
<path d="M100.6607 129.1496
L100.7560 129.0544
" />
<path d="M100.7560 129.0544
L100.9464 128.9592
" />
<path d="M102.4703 130.7687
L102.5655 130.8639
" />
<path d="M102.5655 130.8639
L102.4703 130.9592
" />
<path d="M102.4703 130.9592
L102.3750 130.8639
" />
<path d="M102.3750 130.8639
L102.4703 130.7687
" />
<path d="M102.4703 130.7687
L102.4703 130.9592
" />
<path d="M103.8036 128.9592
L103.9941 128.9592
" />
<path d="M103.9941 128.9592
L104.1845 129.0544
" />
<path d="M104.1845 129.0544
L104.2798 129.1496
" />
<path d="M104.2798 129.1496
L104.3750 129.3401
" />
<path d="M104.3750 129.3401
L104.4703 129.7211
" />
<path d="M104.4703 129.7211
L104.4703 130.1973
" />
<path d="M104.4703 130.1973
L104.3750 130.5782
" />
<path d="M104.3750 130.5782
L104.2798 130.7687
" />
<path d="M104.2798 130.7687
L104.1845 130.8639
" />
<path d="M104.1845 130.8639
L103.9941 130.9592
" />
<path d="M103.9941 130.9592
L103.8036 130.9592
" />
<path d="M103.8036 130.9592
L103.6131 130.8639
" />
<path d="M103.6131 130.8639
L103.5179 130.7687
" />
<path d="M103.5179 130.7687
L103.4226 130.5782
" />
<path d="M103.4226 130.5782
L103.3274 130.1973
" />
<path d="M103.3274 130.1973
L103.3274 129.7211
" />
<path d="M103.3274 129.7211
L103.4226 129.3401
" />
<path d="M103.4226 129.3401
L103.5179 129.1496
" />
<path d="M103.5179 129.1496
L103.6131 129.0544
" />
<path d="M103.6131 129.0544
L103.8036 128.9592
" />
<path d="M105.1369 128.9592
L106.3750 128.9592
" />
<path d="M106.3750 128.9592
L105.7083 129.7211
" />
<path d="M105.7083 129.7211
L105.9941 129.7211
" />
<path d="M105.9941 129.7211
L106.1845 129.8163
" />
<path d="M106.1845 129.8163
L106.2798 129.9115
" />
<path d="M106.2798 129.9115
L106.3750 130.1020
" />
<path d="M106.3750 130.1020
L106.3750 130.5782
" />
<path d="M106.3750 130.5782
L106.2798 130.7687
" />
<path d="M106.2798 130.7687
L106.1845 130.8639
" />
<path d="M106.1845 130.8639
L105.9941 130.9592
" />
<path d="M105.9941 130.9592
L105.4226 130.9592
" />
<path d="M105.4226 130.9592
L105.2322 130.8639
" />
<path d="M105.2322 130.8639
L105.1369 130.7687
" />
<path d="M108.2798 130.9592
L107.1369 130.9592
" />
<path d="M107.7083 130.9592
L107.7083 128.9592
" />
<path d="M107.7083 128.9592
L107.5179 129.2449
" />
<path d="M107.5179 129.2449
L107.3274 129.4353
" />
<path d="M107.3274 129.4353
L107.1369 129.5306
" />
<path d="M110.0893 128.9592
L109.1369 128.9592
" />
<path d="M109.1369 128.9592
L109.0417 129.9115
" />
<path d="M109.0417 129.9115
L109.1369 129.8163
" />
<path d="M109.1369 129.8163
L109.3274 129.7211
" />
<path d="M109.3274 129.7211
L109.8036 129.7211
" />
<path d="M109.8036 129.7211
L109.9941 129.8163
" />
<path d="M109.9941 129.8163
L110.0893 129.9115
" />
<path d="M110.0893 129.9115
L110.1845 130.1020
" />
<path d="M110.1845 130.1020
L110.1845 130.5782
" />
<path d="M110.1845 130.5782
L110.0893 130.7687
" />
<path d="M110.0893 130.7687
L109.9941 130.8639
" />
<path d="M109.9941 130.8639
L109.8036 130.9592
" />
<path d="M109.8036 130.9592
L109.3274 130.9592
" />
<path d="M109.3274 130.9592
L109.1369 130.8639
" />
<path d="M109.1369 130.8639
L109.0417 130.7687
" />
<path d="M110.9464 128.9592
L110.9464 129.3401
" />
<path d="M111.7084 128.9592
L111.7084 129.3401
" />
<path d="M114.6607 131.7211
L114.5655 131.6258
" />
<path d="M114.5655 131.6258
L114.3750 131.3401
" />
<path d="M114.3750 131.3401
L114.2798 131.1496
" />
<path d="M114.2798 131.1496
L114.1845 130.8639
" />
<path d="M114.1845 130.8639
L114.0893 130.3877
" />
<path d="M114.0893 130.3877
L114.0893 130.0068
" />
<path d="M114.0893 130.0068
L114.1845 129.5306
" />
<path d="M114.1845 129.5306
L114.2798 129.2449
" />
<path d="M114.2798 129.2449
L114.3750 129.0544
" />
<path d="M114.3750 129.0544
L114.5655 128.7687
" />
<path d="M114.5655 128.7687
L114.6607 128.6734
" />
<path d="M116.4703 130.9592
L115.3274 130.9592
" />
<path d="M115.8988 130.9592
L115.8988 128.9592
" />
<path d="M115.8988 128.9592
L115.7084 129.2449
" />
<path d="M115.7084 129.2449
L115.5179 129.4353
" />
<path d="M115.5179 129.4353
L115.3274 129.5306
" />
<path d="M118.2798 128.9592
L117.3274 128.9592
" />
<path d="M117.3274 128.9592
L117.2322 129.9115
" />
<path d="M117.2322 129.9115
L117.3274 129.8163
" />
<path d="M117.3274 129.8163
L117.5179 129.7211
" />
<path d="M117.5179 129.7211
L117.9941 129.7211
" />
<path d="M117.9941 129.7211
L118.1845 129.8163
" />
<path d="M118.1845 129.8163
L118.2798 129.9115
" />
<path d="M118.2798 129.9115
L118.3750 130.1020
" />
<path d="M118.3750 130.1020
L118.3750 130.5782
" />
<path d="M118.3750 130.5782
L118.2798 130.7687
" />
<path d="M118.2798 130.7687
L118.1845 130.8639
" />
<path d="M118.1845 130.8639
L117.9941 130.9592
" />
<path d="M117.9941 130.9592
L117.5179 130.9592
" />
<path d="M117.5179 130.9592
L117.3274 130.8639
" />
<path d="M117.3274 130.8639
L117.2322 130.7687
" />
<path d="M120.7560 130.9592
L120.7560 128.9592
" />
<path d="M121.6131 130.9592
L121.6131 129.9115
" />
<path d="M121.6131 129.9115
L121.5179 129.7211
" />
<path d="M121.5179 129.7211
L121.3274 129.6258
" />
<path d="M121.3274 129.6258
L121.0417 129.6258
" />
<path d="M121.0417 129.6258
L120.8512 129.7211
" />
<path d="M120.8512 129.7211
L120.7560 129.8163
" />
<path d="M122.8512 130.9592
L122.6607 130.8639
" />
<path d="M122.6607 130.8639
L122.5655 130.7687
" />
<path d="M122.5655 130.7687
L122.4703 130.5782
" />
<path d="M122.4703 130.5782
L122.4703 130.0068
" />
<path d="M122.4703 130.0068
L122.5655 129.8163
" />
<path d="M122.5655 129.8163
L122.6607 129.7211
" />
<path d="M122.6607 129.7211
L122.8512 129.6258
" />
<path d="M122.8512 129.6258
L123.1369 129.6258
" />
<path d="M123.1369 129.6258
L123.3274 129.7211
" />
<path d="M123.3274 129.7211
L123.4226 129.8163
" />
<path d="M123.4226 129.8163
L123.5179 130.0068
" />
<path d="M123.5179 130.0068
L123.5179 130.5782
" />
<path d="M123.5179 130.5782
L123.4226 130.7687
" />
<path d="M123.4226 130.7687
L123.3274 130.8639
" />
<path d="M123.3274 130.8639
L123.1369 130.9592
" />
<path d="M123.1369 130.9592
L122.8512 130.9592
" />
<path d="M124.6607 130.9592
L124.4703 130.8639
" />
<path d="M124.4703 130.8639
L124.3750 130.6734
" />
<path d="M124.3750 130.6734
L124.3750 128.9592
" />
<path d="M126.1845 130.8639
L125.9941 130.9592
" />
<path d="M125.9941 130.9592
L125.6131 130.9592
" />
<path d="M125.6131 130.9592
L125.4226 130.8639
" />
<path d="M125.4226 130.8639
L125.3274 130.6734
" />
<path d="M125.3274 130.6734
L125.3274 129.9115
" />
<path d="M125.3274 129.9115
L125.4226 129.7211
" />
<path d="M125.4226 129.7211
L125.6131 129.6258
" />
<path d="M125.6131 129.6258
L125.9941 129.6258
" />
<path d="M125.9941 129.6258
L126.1845 129.7211
" />
<path d="M126.1845 129.7211
L126.2798 129.9115
" />
<path d="M126.2798 129.9115
L126.2798 130.1020
" />
<path d="M126.2798 130.1020
L125.3274 130.2925
" />
<path d="M127.0417 130.8639
L127.2322 130.9592
" />
<path d="M127.2322 130.9592
L127.6131 130.9592
" />
<path d="M127.6131 130.9592
L127.8036 130.8639
" />
<path d="M127.8036 130.8639
L127.8988 130.6734
" />
<path d="M127.8988 130.6734
L127.8988 130.5782
" />
<path d="M127.8988 130.5782
L127.8036 130.3877
" />
<path d="M127.8036 130.3877
L127.6131 130.2925
" />
<path d="M127.6131 130.2925
L127.3274 130.2925
" />
<path d="M127.3274 130.2925
L127.1369 130.1973
" />
<path d="M127.1369 130.1973
L127.0417 130.0068
" />
<path d="M127.0417 130.0068
L127.0417 129.9115
" />
<path d="M127.0417 129.9115
L127.1369 129.7211
" />
<path d="M127.1369 129.7211
L127.3274 129.6258
" />
<path d="M127.3274 129.6258
L127.6131 129.6258
" />
<path d="M127.6131 129.6258
L127.8036 129.7211
" />
<path d="M128.5655 131.7211
L128.6607 131.6258
" />
<path d="M128.6607 131.6258
L128.8512 131.3401
" />
<path d="M128.8512 131.3401
L128.9465 131.1496
" />
<path d="M128.9465 131.1496
L129.0417 130.8639
" />
<path d="M129.0417 130.8639
L129.1369 130.3877
" />
<path d="M129.1369 130.3877
L129.1369 130.0068
" />
<path d="M129.1369 130.0068
L129.0417 129.5306
" />
<path d="M129.0417 129.5306
L128.9465 129.2449
" />
<path d="M128.9465 129.2449
L128.8512 129.0544
" />
<path d="M128.8512 129.0544
L128.6607 128.7687
" />
<path d="M128.6607 128.7687
L128.5655 128.6734
" />
</g></g>
<g style="fill:none; 
stroke:#000000; stroke-width:0.2318; stroke-opacity:1; 
stroke-linecap:round; stroke-linejoin:round;">
<path d="M77.9101 132.0985
L77.9101 134.0985
" />
<path d="M76.9101 133.0985
L78.9101 133.0985
" />
</g>
<g style="fill:none; 
stroke:#000000; stroke-width:0.2000; stroke-opacity:1; 
stroke-linecap:round; stroke-linejoin:round;">
<text x="80.9101" y="134.0985"
textLength="46.8667" font-size="2.6667" lengthAdjust="spacingAndGlyphs"
text-anchor="start" opacity="0" stroke-opacity="0">1.100mm / 0.0433" (6 holes)</text>
<g class="stroked-text"><desc>1.100mm / 0.0433" (6 holes)</desc>
<path d="M82.5655 134.0134
L81.4226 134.0134
" />
<path d="M81.9941 134.0134
L81.9941 132.0134
" />
<path d="M81.9941 132.0134
L81.8036 132.2991
" />
<path d="M81.8036 132.2991
L81.6131 132.4896
" />
<path d="M81.6131 132.4896
L81.4226 132.5848
" />
<path d="M83.4226 133.8229
L83.5179 133.9181
" />
<path d="M83.5179 133.9181
L83.4226 134.0134
" />
<path d="M83.4226 134.0134
L83.3274 133.9181
" />
<path d="M83.3274 133.9181
L83.4226 133.8229
" />
<path d="M83.4226 133.8229
L83.4226 134.0134
" />
<path d="M85.4226 134.0134
L84.2798 134.0134
" />
<path d="M84.8512 134.0134
L84.8512 132.0134
" />
<path d="M84.8512 132.0134
L84.6607 132.2991
" />
<path d="M84.6607 132.2991
L84.4702 132.4896
" />
<path d="M84.4702 132.4896
L84.2798 132.5848
" />
<path d="M86.6607 132.0134
L86.8512 132.0134
" />
<path d="M86.8512 132.0134
L87.0417 132.1086
" />
<path d="M87.0417 132.1086
L87.1369 132.2038
" />
<path d="M87.1369 132.2038
L87.2322 132.3943
" />
<path d="M87.2322 132.3943
L87.3274 132.7753
" />
<path d="M87.3274 132.7753
L87.3274 133.2515
" />
<path d="M87.3274 133.2515
L87.2322 133.6324
" />
<path d="M87.2322 133.6324
L87.1369 133.8229
" />
<path d="M87.1369 133.8229
L87.0417 133.9181
" />
<path d="M87.0417 133.9181
L86.8512 134.0134
" />
<path d="M86.8512 134.0134
L86.6607 134.0134
" />
<path d="M86.6607 134.0134
L86.4702 133.9181
" />
<path d="M86.4702 133.9181
L86.3750 133.8229
" />
<path d="M86.3750 133.8229
L86.2798 133.6324
" />
<path d="M86.2798 133.6324
L86.1845 133.2515
" />
<path d="M86.1845 133.2515
L86.1845 132.7753
" />
<path d="M86.1845 132.7753
L86.2798 132.3943
" />
<path d="M86.2798 132.3943
L86.3750 132.2038
" />
<path d="M86.3750 132.2038
L86.4702 132.1086
" />
<path d="M86.4702 132.1086
L86.6607 132.0134
" />
<path d="M88.5655 132.0134
L88.7560 132.0134
" />
<path d="M88.7560 132.0134
L88.9464 132.1086
" />
<path d="M88.9464 132.1086
L89.0417 132.2038
" />
<path d="M89.0417 132.2038
L89.1369 132.3943
" />
<path d="M89.1369 132.3943
L89.2322 132.7753
" />
<path d="M89.2322 132.7753
L89.2322 133.2515
" />
<path d="M89.2322 133.2515
L89.1369 133.6324
" />
<path d="M89.1369 133.6324
L89.0417 133.8229
" />
<path d="M89.0417 133.8229
L88.9464 133.9181
" />
<path d="M88.9464 133.9181
L88.7560 134.0134
" />
<path d="M88.7560 134.0134
L88.5655 134.0134
" />
<path d="M88.5655 134.0134
L88.3750 133.9181
" />
<path d="M88.3750 133.9181
L88.2798 133.8229
" />
<path d="M88.2798 133.8229
L88.1845 133.6324
" />
<path d="M88.1845 133.6324
L88.0893 133.2515
" />
<path d="M88.0893 133.2515
L88.0893 132.7753
" />
<path d="M88.0893 132.7753
L88.1845 132.3943
" />
<path d="M88.1845 132.3943
L88.2798 132.2038
" />
<path d="M88.2798 132.2038
L88.3750 132.1086
" />
<path d="M88.3750 132.1086
L88.5655 132.0134
" />
<path d="M90.0893 134.0134
L90.0893 132.6800
" />
<path d="M90.0893 132.8705
L90.1845 132.7753
" />
<path d="M90.1845 132.7753
L90.3750 132.6800
" />
<path d="M90.3750 132.6800
L90.6607 132.6800
" />
<path d="M90.6607 132.6800
L90.8512 132.7753
" />
<path d="M90.8512 132.7753
L90.9464 132.9658
" />
<path d="M90.9464 132.9658
L90.9464 134.0134
" />
<path d="M90.9464 132.9658
L91.0417 132.7753
" />
<path d="M91.0417 132.7753
L91.2322 132.6800
" />
<path d="M91.2322 132.6800
L91.5179 132.6800
" />
<path d="M91.5179 132.6800
L91.7083 132.7753
" />
<path d="M91.7083 132.7753
L91.8036 132.9658
" />
<path d="M91.8036 132.9658
L91.8036 134.0134
" />
<path d="M92.7560 134.0134
L92.7560 132.6800
" />
<path d="M92.7560 132.8705
L92.8512 132.7753
" />
<path d="M92.8512 132.7753
L93.0417 132.6800
" />
<path d="M93.0417 132.6800
L93.3274 132.6800
" />
<path d="M93.3274 132.6800
L93.5179 132.7753
" />
<path d="M93.5179 132.7753
L93.6131 132.9658
" />
<path d="M93.6131 132.9658
L93.6131 134.0134
" />
<path d="M93.6131 132.9658
L93.7083 132.7753
" />
<path d="M93.7083 132.7753
L93.8988 132.6800
" />
<path d="M93.8988 132.6800
L94.1845 132.6800
" />
<path d="M94.1845 132.6800
L94.3750 132.7753
" />
<path d="M94.3750 132.7753
L94.4702 132.9658
" />
<path d="M94.4702 132.9658
L94.4702 134.0134
" />
<path d="M98.3750 131.9181
L96.6607 134.4896
" />
<path d="M100.9464 132.0134
L101.1369 132.0134
" />
<path d="M101.1369 132.0134
L101.3274 132.1086
" />
<path d="M101.3274 132.1086
L101.4226 132.2038
" />
<path d="M101.4226 132.2038
L101.5179 132.3943
" />
<path d="M101.5179 132.3943
L101.6131 132.7753
" />
<path d="M101.6131 132.7753
L101.6131 133.2515
" />
<path d="M101.6131 133.2515
L101.5179 133.6324
" />
<path d="M101.5179 133.6324
L101.4226 133.8229
" />
<path d="M101.4226 133.8229
L101.3274 133.9181
" />
<path d="M101.3274 133.9181
L101.1369 134.0134
" />
<path d="M101.1369 134.0134
L100.9464 134.0134
" />
<path d="M100.9464 134.0134
L100.7560 133.9181
" />
<path d="M100.7560 133.9181
L100.6607 133.8229
" />
<path d="M100.6607 133.8229
L100.5655 133.6324
" />
<path d="M100.5655 133.6324
L100.4702 133.2515
" />
<path d="M100.4702 133.2515
L100.4702 132.7753
" />
<path d="M100.4702 132.7753
L100.5655 132.3943
" />
<path d="M100.5655 132.3943
L100.6607 132.2038
" />
<path d="M100.6607 132.2038
L100.7560 132.1086
" />
<path d="M100.7560 132.1086
L100.9464 132.0134
" />
<path d="M102.4703 133.8229
L102.5655 133.9181
" />
<path d="M102.5655 133.9181
L102.4703 134.0134
" />
<path d="M102.4703 134.0134
L102.3750 133.9181
" />
<path d="M102.3750 133.9181
L102.4703 133.8229
" />
<path d="M102.4703 133.8229
L102.4703 134.0134
" />
<path d="M103.8036 132.0134
L103.9941 132.0134
" />
<path d="M103.9941 132.0134
L104.1845 132.1086
" />
<path d="M104.1845 132.1086
L104.2798 132.2038
" />
<path d="M104.2798 132.2038
L104.3750 132.3943
" />
<path d="M104.3750 132.3943
L104.4703 132.7753
" />
<path d="M104.4703 132.7753
L104.4703 133.2515
" />
<path d="M104.4703 133.2515
L104.3750 133.6324
" />
<path d="M104.3750 133.6324
L104.2798 133.8229
" />
<path d="M104.2798 133.8229
L104.1845 133.9181
" />
<path d="M104.1845 133.9181
L103.9941 134.0134
" />
<path d="M103.9941 134.0134
L103.8036 134.0134
" />
<path d="M103.8036 134.0134
L103.6131 133.9181
" />
<path d="M103.6131 133.9181
L103.5179 133.8229
" />
<path d="M103.5179 133.8229
L103.4226 133.6324
" />
<path d="M103.4226 133.6324
L103.3274 133.2515
" />
<path d="M103.3274 133.2515
L103.3274 132.7753
" />
<path d="M103.3274 132.7753
L103.4226 132.3943
" />
<path d="M103.4226 132.3943
L103.5179 132.2038
" />
<path d="M103.5179 132.2038
L103.6131 132.1086
" />
<path d="M103.6131 132.1086
L103.8036 132.0134
" />
<path d="M106.1845 132.6800
L106.1845 134.0134
" />
<path d="M105.7083 131.9181
L105.2322 133.3467
" />
<path d="M105.2322 133.3467
L106.4703 133.3467
" />
<path d="M107.0417 132.0134
L108.2798 132.0134
" />
<path d="M108.2798 132.0134
L107.6131 132.7753
" />
<path d="M107.6131 132.7753
L107.8988 132.7753
" />
<path d="M107.8988 132.7753
L108.0893 132.8705
" />
<path d="M108.0893 132.8705
L108.1845 132.9658
" />
<path d="M108.1845 132.9658
L108.2798 133.1562
" />
<path d="M108.2798 133.1562
L108.2798 133.6324
" />
<path d="M108.2798 133.6324
L108.1845 133.8229
" />
<path d="M108.1845 133.8229
L108.0893 133.9181
" />
<path d="M108.0893 133.9181
L107.8988 134.0134
" />
<path d="M107.8988 134.0134
L107.3274 134.0134
" />
<path d="M107.3274 134.0134
L107.1369 133.9181
" />
<path d="M107.1369 133.9181
L107.0417 133.8229
" />
<path d="M108.9464 132.0134
L110.1845 132.0134
" />
<path d="M110.1845 132.0134
L109.5179 132.7753
" />
<path d="M109.5179 132.7753
L109.8036 132.7753
" />
<path d="M109.8036 132.7753
L109.9941 132.8705
" />
<path d="M109.9941 132.8705
L110.0893 132.9658
" />
<path d="M110.0893 132.9658
L110.1845 133.1562
" />
<path d="M110.1845 133.1562
L110.1845 133.6324
" />
<path d="M110.1845 133.6324
L110.0893 133.8229
" />
<path d="M110.0893 133.8229
L109.9941 133.9181
" />
<path d="M109.9941 133.9181
L109.8036 134.0134
" />
<path d="M109.8036 134.0134
L109.2322 134.0134
" />
<path d="M109.2322 134.0134
L109.0417 133.9181
" />
<path d="M109.0417 133.9181
L108.9464 133.8229
" />
<path d="M110.9464 132.0134
L110.9464 132.3943
" />
<path d="M111.7084 132.0134
L111.7084 132.3943
" />
<path d="M114.6607 134.7753
L114.5655 134.6800
" />
<path d="M114.5655 134.6800
L114.3750 134.3943
" />
<path d="M114.3750 134.3943
L114.2798 134.2038
" />
<path d="M114.2798 134.2038
L114.1845 133.9181
" />
<path d="M114.1845 133.9181
L114.0893 133.4419
" />
<path d="M114.0893 133.4419
L114.0893 133.0610
" />
<path d="M114.0893 133.0610
L114.1845 132.5848
" />
<path d="M114.1845 132.5848
L114.2798 132.2991
" />
<path d="M114.2798 132.2991
L114.3750 132.1086
" />
<path d="M114.3750 132.1086
L114.5655 131.8229
" />
<path d="M114.5655 131.8229
L114.6607 131.7277
" />
<path d="M116.2798 132.0134
L115.8988 132.0134
" />
<path d="M115.8988 132.0134
L115.7084 132.1086
" />
<path d="M115.7084 132.1086
L115.6131 132.2038
" />
<path d="M115.6131 132.2038
L115.4226 132.4896
" />
<path d="M115.4226 132.4896
L115.3274 132.8705
" />
<path d="M115.3274 132.8705
L115.3274 133.6324
" />
<path d="M115.3274 133.6324
L115.4226 133.8229
" />
<path d="M115.4226 133.8229
L115.5179 133.9181
" />
<path d="M115.5179 133.9181
L115.7084 134.0134
" />
<path d="M115.7084 134.0134
L116.0893 134.0134
" />
<path d="M116.0893 134.0134
L116.2798 133.9181
" />
<path d="M116.2798 133.9181
L116.3750 133.8229
" />
<path d="M116.3750 133.8229
L116.4703 133.6324
" />
<path d="M116.4703 133.6324
L116.4703 133.1562
" />
<path d="M116.4703 133.1562
L116.3750 132.9658
" />
<path d="M116.3750 132.9658
L116.2798 132.8705
" />
<path d="M116.2798 132.8705
L116.0893 132.7753
" />
<path d="M116.0893 132.7753
L115.7084 132.7753
" />
<path d="M115.7084 132.7753
L115.5179 132.8705
" />
<path d="M115.5179 132.8705
L115.4226 132.9658
" />
<path d="M115.4226 132.9658
L115.3274 133.1562
" />
<path d="M118.8512 134.0134
L118.8512 132.0134
" />
<path d="M119.7084 134.0134
L119.7084 132.9658
" />
<path d="M119.7084 132.9658
L119.6131 132.7753
" />
<path d="M119.6131 132.7753
L119.4226 132.6800
" />
<path d="M119.4226 132.6800
L119.1369 132.6800
" />
<path d="M119.1369 132.6800
L118.9464 132.7753
" />
<path d="M118.9464 132.7753
L118.8512 132.8705
" />
<path d="M120.9464 134.0134
L120.7560 133.9181
" />
<path d="M120.7560 133.9181
L120.6607 133.8229
" />
<path d="M120.6607 133.8229
L120.5655 133.6324
" />
<path d="M120.5655 133.6324
L120.5655 133.0610
" />
<path d="M120.5655 133.0610
L120.6607 132.8705
" />
<path d="M120.6607 132.8705
L120.7560 132.7753
" />
<path d="M120.7560 132.7753
L120.9464 132.6800
" />
<path d="M120.9464 132.6800
L121.2322 132.6800
" />
<path d="M121.2322 132.6800
L121.4226 132.7753
" />
<path d="M121.4226 132.7753
L121.5179 132.8705
" />
<path d="M121.5179 132.8705
L121.6131 133.0610
" />
<path d="M121.6131 133.0610
L121.6131 133.6324
" />
<path d="M121.6131 133.6324
L121.5179 133.8229
" />
<path d="M121.5179 133.8229
L121.4226 133.9181
" />
<path d="M121.4226 133.9181
L121.2322 134.0134
" />
<path d="M121.2322 134.0134
L120.9464 134.0134
" />
<path d="M122.7560 134.0134
L122.5655 133.9181
" />
<path d="M122.5655 133.9181
L122.4703 133.7277
" />
<path d="M122.4703 133.7277
L122.4703 132.0134
" />
<path d="M124.2798 133.9181
L124.0893 134.0134
" />
<path d="M124.0893 134.0134
L123.7084 134.0134
" />
<path d="M123.7084 134.0134
L123.5179 133.9181
" />
<path d="M123.5179 133.9181
L123.4226 133.7277
" />
<path d="M123.4226 133.7277
L123.4226 132.9658
" />
<path d="M123.4226 132.9658
L123.5179 132.7753
" />
<path d="M123.5179 132.7753
L123.7084 132.6800
" />
<path d="M123.7084 132.6800
L124.0893 132.6800
" />
<path d="M124.0893 132.6800
L124.2798 132.7753
" />
<path d="M124.2798 132.7753
L124.3750 132.9658
" />
<path d="M124.3750 132.9658
L124.3750 133.1562
" />
<path d="M124.3750 133.1562
L123.4226 133.3467
" />
<path d="M125.1369 133.9181
L125.3274 134.0134
" />
<path d="M125.3274 134.0134
L125.7084 134.0134
" />
<path d="M125.7084 134.0134
L125.8988 133.9181
" />
<path d="M125.8988 133.9181
L125.9941 133.7277
" />
<path d="M125.9941 133.7277
L125.9941 133.6324
" />
<path d="M125.9941 133.6324
L125.8988 133.4419
" />
<path d="M125.8988 133.4419
L125.7084 133.3467
" />
<path d="M125.7084 133.3467
L125.4226 133.3467
" />
<path d="M125.4226 133.3467
L125.2322 133.2515
" />
<path d="M125.2322 133.2515
L125.1369 133.0610
" />
<path d="M125.1369 133.0610
L125.1369 132.9658
" />
<path d="M125.1369 132.9658
L125.2322 132.7753
" />
<path d="M125.2322 132.7753
L125.4226 132.6800
" />
<path d="M125.4226 132.6800
L125.7084 132.6800
" />
<path d="M125.7084 132.6800
L125.8988 132.7753
" />
<path d="M126.6607 134.7753
L126.7560 134.6800
" />
<path d="M126.7560 134.6800
L126.9465 134.3943
" />
<path d="M126.9465 134.3943
L127.0417 134.2038
" />
<path d="M127.0417 134.2038
L127.1369 133.9181
" />
<path d="M127.1369 133.9181
L127.2322 133.4419
" />
<path d="M127.2322 133.4419
L127.2322 133.0610
" />
<path d="M127.2322 133.0610
L127.1369 132.5848
" />
<path d="M127.1369 132.5848
L127.0417 132.2991
" />
<path d="M127.0417 132.2991
L126.9465 132.1086
" />
<path d="M126.9465 132.1086
L126.7560 131.8229
" />
<path d="M126.7560 131.8229
L126.6607 131.7277
" />
</g></g> 
</svg>
